<svg xmlns="http://www.w3.org/2000/svg" width="800" height="800" viewBox="0 0 800 800">
<rect width="800" height="800" fill="#0d1b2a"/>
<circle cx="707.0" cy="402.6" r="29.6" fill="none" stroke="#98c1d9" stroke-width="2"/>
<circle cx="748.1" cy="304.6" r="32.6" fill="none" stroke="#3d5a80" stroke-width="2"/>
<circle cx="426.7" cy="365.2" r="48.1" fill="none" stroke="#f4a261" stroke-width="2"/>
<circle cx="542.4" cy="670.6" r="30.4" fill="none" stroke="#ee6c4d" stroke-width="2"/>
<circle cx="42.5" cy="318.5" r="22.5" fill="none" stroke="#e0fbfc" stroke-width="2"/>
<circle cx="81.3" cy="440.5" r="52.3" fill="none" stroke="#e0fbfc" stroke-width="2"/>
<circle cx="255.0" cy="740.9" r="24.2" fill="none" stroke="#e0fbfc" stroke-width="2"/>
<circle cx="386.9" cy="218.2" r="5.8" fill="none" stroke="#98c1d9" stroke-width="2"/>
<circle cx="532.4" cy="345.6" r="43.7" fill="none" stroke="#e0fbfc" stroke-width="2"/>
<circle cx="64.8" cy="597.8" r="12.9" fill="none" stroke="#e0fbfc" stroke-width="2"/>
<circle cx="599.8" cy="463.9" r="3.3" fill="none" stroke="#e0fbfc" stroke-width="2"/>
<circle cx="589.4" cy="275.9" r="38.0" fill="none" stroke="#98c1d9" stroke-width="2"/>
<circle cx="118.0" cy="532.9" r="14.7" fill="none" stroke="#98c1d9" stroke-width="2"/>
<circle cx="451.8" cy="145.9" r="22.9" fill="none" stroke="#3d5a80" stroke-width="2"/>
<circle cx="206.3" cy="364.6" r="29.9" fill="none" stroke="#3d5a80" stroke-width="2"/>
<circle cx="697.3" cy="26.6" r="5.5" fill="none" stroke="#e0fbfc" stroke-width="2"/>
<circle cx="490.3" cy="127.9" r="12.2" fill="none" stroke="#f4a261" stroke-width="2"/>
<circle cx="129.3" cy="592.1" r="10.9" fill="none" stroke="#f4a261" stroke-width="2"/>
<circle cx="309.4" cy="314.3" r="16.8" fill="none" stroke="#98c1d9" stroke-width="2"/>
<circle cx="536.4" cy="168.7" r="29.8" fill="none" stroke="#e0fbfc" stroke-width="2"/>
<circle cx="644.3" cy="585.8" r="37.9" fill="none" stroke="#e0fbfc" stroke-width="2"/>
<circle cx="688.8" cy="147.6" r="8.3" fill="none" stroke="#e0fbfc" stroke-width="2"/>
<circle cx="581.8" cy="711.1" r="15.6" fill="none" stroke="#3d5a80" stroke-width="2"/>
<circle cx="232.1" cy="111.6" r="19.0" fill="none" stroke="#f4a261" stroke-width="2"/>
<circle cx="125.8" cy="199.4" r="21.3" fill="none" stroke="#98c1d9" stroke-width="2"/>
<circle cx="27.6" cy="92.7" r="11.2" fill="none" stroke="#f4a261" stroke-width="2"/>
<circle cx="86.4" cy="697.7" r="27.8" fill="none" stroke="#f4a261" stroke-width="2"/>
<circle cx="275.1" cy="51.9" r="12.6" fill="none" stroke="#3d5a80" stroke-width="2"/>
<circle cx="454.2" cy="298.2" r="14.9" fill="none" stroke="#ee6c4d" stroke-width="2"/>
<circle cx="648.5" cy="503.8" r="38.5" fill="none" stroke="#ee6c4d" stroke-width="2"/>
<circle cx="398.8" cy="575.3" r="52.4" fill="none" stroke="#f4a261" stroke-width="2"/>
<circle cx="557.8" cy="445.6" r="5.1" fill="none" stroke="#f4a261" stroke-width="2"/>
<circle cx="565.2" cy="624.0" r="12.5" fill="none" stroke="#ee6c4d" stroke-width="2"/>
<circle cx="527.9" cy="22.2" r="19.8" fill="none" stroke="#98c1d9" stroke-width="2"/>
<circle cx="370.6" cy="651.9" r="22.7" fill="none" stroke="#e0fbfc" stroke-width="2"/>
<circle cx="670.5" cy="746.0" r="33.5" fill="none" stroke="#f4a261" stroke-width="2"/>
<circle cx="651.5" cy="246.8" r="23.1" fill="none" stroke="#ee6c4d" stroke-width="2"/>
<circle cx="471.8" cy="727.6" r="53.2" fill="none" stroke="#e0fbfc" stroke-width="2"/>
<circle cx="19.3" cy="650.9" r="10.0" fill="none" stroke="#3d5a80" stroke-width="2"/>
<circle cx="665.0" cy="326.3" r="40.1" fill="none" stroke="#e0fbfc" stroke-width="2"/>
<circle cx="223.6" cy="576.6" r="42.3" fill="none" stroke="#f4a261" stroke-width="2"/>
<circle cx="308.9" cy="579.1" r="15.4" fill="none" stroke="#e0fbfc" stroke-width="2"/>
<circle cx="319.8" cy="185.3" r="9.0" fill="none" stroke="#98c1d9" stroke-width="2"/>
<circle cx="473.3" cy="230.1" r="27.6" fill="none" stroke="#e0fbfc" stroke-width="2"/>
<circle cx="438.7" cy="23.5" r="16.0" fill="none" stroke="#f4a261" stroke-width="2"/>
<circle cx="215.6" cy="641.6" r="3.2" fill="none" stroke="#ee6c4d" stroke-width="2"/>
<circle cx="194.4" cy="70.8" r="5.1" fill="none" stroke="#e0fbfc" stroke-width="2"/>
<circle cx="163.2" cy="258.6" r="20.9" fill="none" stroke="#98c1d9" stroke-width="2"/>
<circle cx="498.4" cy="557.4" r="30.4" fill="none" stroke="#98c1d9" stroke-width="2"/>
<circle cx="170.3" cy="199.9" r="12.0" fill="none" stroke="#e0fbfc" stroke-width="2"/>
<circle cx="313.2" cy="249.9" r="21.1" fill="none" stroke="#e0fbfc" stroke-width="2"/>
<circle cx="153.3" cy="445.7" r="11.3" fill="none" stroke="#e0fbfc" stroke-width="2"/>
<circle cx="50.9" cy="66.0" r="22.2" fill="none" stroke="#98c1d9" stroke-width="2"/>
<circle cx="688.1" cy="207.8" r="17.3" fill="none" stroke="#e0fbfc" stroke-width="2"/>
<circle cx="26.5" cy="225.7" r="8.4" fill="none" stroke="#ee6c4d" stroke-width="2"/>
<circle cx="562.1" cy="549.6" r="13.1" fill="none" stroke="#98c1d9" stroke-width="2"/>
<circle cx="590.2" cy="163.2" r="5.8" fill="none" stroke="#98c1d9" stroke-width="2"/>
<circle cx="633.9" cy="195.8" r="3.4" fill="none" stroke="#98c1d9" stroke-width="2"/>
<circle cx="626.5" cy="92.6" r="34.6" fill="none" stroke="#ee6c4d" stroke-width="2"/>
<circle cx="726.0" cy="458.2" r="23.1" fill="none" stroke="#3d5a80" stroke-width="2"/>
<circle cx="237.2" cy="235.2" r="11.5" fill="none" stroke="#f4a261" stroke-width="2"/>
<circle cx="537.1" cy="438.4" r="8.8" fill="none" stroke="#ee6c4d" stroke-width="2"/>
<circle cx="152.8" cy="650.1" r="8.2" fill="none" stroke="#ee6c4d" stroke-width="2"/>
<circle cx="269.8" cy="404.8" r="29.1" fill="none" stroke="#f4a261" stroke-width="2"/>
<circle cx="10.5" cy="608.1" r="6.7" fill="none" stroke="#98c1d9" stroke-width="2"/>
<circle cx="597.5" cy="544.8" r="10.0" fill="none" stroke="#98c1d9" stroke-width="2"/>
<circle cx="235.1" cy="473.0" r="20.6" fill="none" stroke="#f4a261" stroke-width="2"/>
<circle cx="558.2" cy="83.1" r="32.2" fill="none" stroke="#e0fbfc" stroke-width="2"/>
<circle cx="700.0" cy="687.0" r="14.0" fill="none" stroke="#e0fbfc" stroke-width="2"/>
<circle cx="107.9" cy="744.7" r="8.5" fill="none" stroke="#98c1d9" stroke-width="2"/>
<circle cx="271.8" cy="259.6" r="12.6" fill="none" stroke="#f4a261" stroke-width="2"/>
<circle cx="59.8" cy="261.6" r="31.7" fill="none" stroke="#98c1d9" stroke-width="2"/>
<circle cx="723.6" cy="89.1" r="33.5" fill="none" stroke="#f4a261" stroke-width="2"/>
<circle cx="654.2" cy="189.4" r="12.7" fill="none" stroke="#98c1d9" stroke-width="2"/>
<circle cx="450.3" cy="59.7" r="7.5" fill="none" stroke="#98c1d9" stroke-width="2"/>
<circle cx="468.3" cy="26.9" r="6.4" fill="none" stroke="#98c1d9" stroke-width="2"/>
<circle cx="332.2" cy="116.6" r="51.7" fill="none" stroke="#ee6c4d" stroke-width="2"/>
<circle cx="312.4" cy="766.5" r="32.4" fill="none" stroke="#98c1d9" stroke-width="2"/>
<circle cx="363.9" cy="276.6" r="10.1" fill="none" stroke="#f4a261" stroke-width="2"/>
<circle cx="307.3" cy="368.7" r="10.8" fill="none" stroke="#e0fbfc" stroke-width="2"/>
<circle cx="147.5" cy="81.7" r="27.9" fill="none" stroke="#98c1d9" stroke-width="2"/>
<circle cx="89.6" cy="29.8" r="18.6" fill="none" stroke="#3d5a80" stroke-width="2"/>
<circle cx="433.0" cy="57.6" r="4.8" fill="none" stroke="#ee6c4d" stroke-width="2"/>
<circle cx="605.1" cy="10.9" r="5.4" fill="none" stroke="#f4a261" stroke-width="2"/>
<circle cx="457.9" cy="488.2" r="44.9" fill="none" stroke="#f4a261" stroke-width="2"/>
<circle cx="540.7" cy="512.1" r="20.7" fill="none" stroke="#ee6c4d" stroke-width="2"/>
<circle cx="126.1" cy="723.6" r="4.2" fill="none" stroke="#ee6c4d" stroke-width="2"/>
<circle cx="622.6" cy="426.1" r="26.1" fill="none" stroke="#98c1d9" stroke-width="2"/>
<circle cx="739.3" cy="493.3" r="11.7" fill="none" stroke="#ee6c4d" stroke-width="2"/>
<circle cx="403.3" cy="154.1" r="10.3" fill="none" stroke="#ee6c4d" stroke-width="2"/>
<circle cx="129.1" cy="356.1" r="12.7" fill="none" stroke="#f4a261" stroke-width="2"/>
<circle cx="399.6" cy="21.7" r="20.6" fill="none" stroke="#3d5a80" stroke-width="2"/>
<circle cx="732.0" cy="540.1" r="14.3" fill="none" stroke="#f4a261" stroke-width="2"/>
<circle cx="288.4" cy="649.7" r="6.8" fill="none" stroke="#e0fbfc" stroke-width="2"/>
<circle cx="201.1" cy="469.0" r="4.9" fill="none" stroke="#3d5a80" stroke-width="2"/>
<circle cx="63.8" cy="511.4" r="4.7" fill="none" stroke="#f4a261" stroke-width="2"/>
<circle cx="185.4" cy="742.6" r="13.2" fill="none" stroke="#ee6c4d" stroke-width="2"/>
<circle cx="769.0" cy="507.9" r="13.5" fill="none" stroke="#f4a261" stroke-width="2"/>
<circle cx="96.7" cy="96.3" r="4.4" fill="none" stroke="#f4a261" stroke-width="2"/>
<circle cx="33.6" cy="497.8" r="6.9" fill="none" stroke="#f4a261" stroke-width="2"/>
<circle cx="155.9" cy="735.4" r="12.6" fill="none" stroke="#e0fbfc" stroke-width="2"/>
<circle cx="146.5" cy="674.8" r="3.1" fill="none" stroke="#ee6c4d" stroke-width="2"/>
<circle cx="159.1" cy="783.7" r="5.4" fill="none" stroke="#98c1d9" stroke-width="2"/>
<circle cx="179.8" cy="676.6" r="3.4" fill="none" stroke="#e0fbfc" stroke-width="2"/>
<circle cx="504.7" cy="657.6" r="5.6" fill="none" stroke="#e0fbfc" stroke-width="2"/>
<circle cx="23.0" cy="698.3" r="16.7" fill="none" stroke="#e0fbfc" stroke-width="2"/>
<circle cx="642.0" cy="661.5" r="15.5" fill="none" stroke="#98c1d9" stroke-width="2"/>
<circle cx="77.2" cy="761.9" r="6.5" fill="none" stroke="#3d5a80" stroke-width="2"/>
<circle cx="354.8" cy="401.5" r="9.2" fill="none" stroke="#98c1d9" stroke-width="2"/>
<circle cx="784.9" cy="558.1" r="9.5" fill="none" stroke="#ee6c4d" stroke-width="2"/>
<circle cx="329.3" cy="613.3" r="10.7" fill="none" stroke="#f4a261" stroke-width="2"/>
<circle cx="238.0" cy="210.0" r="11.3" fill="none" stroke="#3d5a80" stroke-width="2"/>
<circle cx="582.0" cy="765.1" r="8.2" fill="none" stroke="#98c1d9" stroke-width="2"/>
<circle cx="146.5" cy="136.1" r="7.4" fill="none" stroke="#ee6c4d" stroke-width="2"/>
<circle cx="601.7" cy="359.1" r="9.5" fill="none" stroke="#98c1d9" stroke-width="2"/>
<circle cx="759.8" cy="155.4" r="35.4" fill="none" stroke="#f4a261" stroke-width="2"/>
<circle cx="738.5" cy="602.6" r="5.3" fill="none" stroke="#3d5a80" stroke-width="2"/>
<circle cx="415.3" cy="215.1" r="6.2" fill="none" stroke="#3d5a80" stroke-width="2"/>
<circle cx="277.5" cy="616.2" r="3.3" fill="none" stroke="#3d5a80" stroke-width="2"/>
<circle cx="261.8" cy="290.7" r="7.6" fill="none" stroke="#f4a261" stroke-width="2"/>
<circle cx="415.9" cy="188.6" r="15.1" fill="none" stroke="#3d5a80" stroke-width="2"/>
<circle cx="744.9" cy="749.8" r="28.7" fill="none" stroke="#3d5a80" stroke-width="2"/>
<circle cx="753.5" cy="223.3" r="7.5" fill="none" stroke="#f4a261" stroke-width="2"/>
<circle cx="610.9" cy="47.4" r="3.4" fill="none" stroke="#f4a261" stroke-width="2"/>
<circle cx="312.3" cy="646.6" r="13.1" fill="none" stroke="#f4a261" stroke-width="2"/>
<circle cx="153.0" cy="482.9" r="11.8" fill="none" stroke="#ee6c4d" stroke-width="2"/>
<circle cx="328.6" cy="525.8" r="25.8" fill="none" stroke="#3d5a80" stroke-width="2"/>
<circle cx="270.0" cy="197.7" r="4.6" fill="none" stroke="#98c1d9" stroke-width="2"/>
<circle cx="176.5" cy="511.5" r="6.2" fill="none" stroke="#f4a261" stroke-width="2"/>
<circle cx="133.8" cy="287.6" r="17.5" fill="none" stroke="#f4a261" stroke-width="2"/>
<circle cx="95.4" cy="545.8" r="6.2" fill="none" stroke="#3d5a80" stroke-width="2"/>
<circle cx="183.5" cy="158.3" r="10.8" fill="none" stroke="#e0fbfc" stroke-width="2"/>
<circle cx="210.2" cy="234.5" r="10.4" fill="none" stroke="#e0fbfc" stroke-width="2"/>
<circle cx="572.4" cy="399.8" r="10.4" fill="none" stroke="#f4a261" stroke-width="2"/>
<circle cx="771.5" cy="617.3" r="25.8" fill="none" stroke="#e0fbfc" stroke-width="2"/>
<circle cx="333.9" cy="51.8" r="10.6" fill="none" stroke="#3d5a80" stroke-width="2"/>
<circle cx="693.0" cy="532.0" r="11.8" fill="none" stroke="#ee6c4d" stroke-width="2"/>
<circle cx="308.4" cy="212.7" r="10.0" fill="none" stroke="#e0fbfc" stroke-width="2"/>
<circle cx="550.1" cy="582.8" r="14.7" fill="none" stroke="#98c1d9" stroke-width="2"/>
<circle cx="105.3" cy="281.8" r="7.8" fill="none" stroke="#ee6c4d" stroke-width="2"/>
<circle cx="329.9" cy="25.7" r="6.1" fill="none" stroke="#98c1d9" stroke-width="2"/>
<circle cx="300.0" cy="710.4" r="16.2" fill="none" stroke="#e0fbfc" stroke-width="2"/>
<circle cx="536.2" cy="615.7" r="5.4" fill="none" stroke="#ee6c4d" stroke-width="2"/>
<circle cx="635.9" cy="374.4" r="5.1" fill="none" stroke="#f4a261" stroke-width="2"/>
<circle cx="43.2" cy="550.3" r="21.2" fill="none" stroke="#f4a261" stroke-width="2"/>
<circle cx="126.5" cy="701.7" r="8.8" fill="none" stroke="#e0fbfc" stroke-width="2"/>
<circle cx="384.8" cy="698.5" r="11.2" fill="none" stroke="#3d5a80" stroke-width="2"/>
<circle cx="170.3" cy="765.8" r="8.3" fill="none" stroke="#f4a261" stroke-width="2"/>
<circle cx="98.5" cy="320.2" r="14.9" fill="none" stroke="#e0fbfc" stroke-width="2"/>
<circle cx="89.4" cy="785.5" r="7.2" fill="none" stroke="#e0fbfc" stroke-width="2"/>
<circle cx="46.1" cy="146.2" r="37.9" fill="none" stroke="#ee6c4d" stroke-width="2"/>
<circle cx="766.5" cy="413.2" r="24.6" fill="none" stroke="#3d5a80" stroke-width="2"/>
<circle cx="196.9" cy="292.9" r="20.4" fill="none" stroke="#98c1d9" stroke-width="2"/>
<circle cx="213.6" cy="745.5" r="11.7" fill="none" stroke="#ee6c4d" stroke-width="2"/>
<circle cx="710.9" cy="352.2" r="6.5" fill="none" stroke="#f4a261" stroke-width="2"/>
<circle cx="508.6" cy="783.0" r="4.9" fill="none" stroke="#3d5a80" stroke-width="2"/>
<circle cx="719.3" cy="231.6" r="18.9" fill="none" stroke="#98c1d9" stroke-width="2"/>
<circle cx="795.5" cy="351.1" r="4.4" fill="none" stroke="#e0fbfc" stroke-width="2"/>
<circle cx="369.7" cy="451.5" r="10.9" fill="none" stroke="#f4a261" stroke-width="2"/>
<circle cx="580.6" cy="519.2" r="17.7" fill="none" stroke="#98c1d9" stroke-width="2"/>
<circle cx="111.0" cy="501.2" r="5.4" fill="none" stroke="#ee6c4d" stroke-width="2"/>
<circle cx="40.7" cy="647.3" r="3.7" fill="none" stroke="#ee6c4d" stroke-width="2"/>
<circle cx="181.5" cy="44.3" r="10.2" fill="none" stroke="#ee6c4d" stroke-width="2"/>
<circle cx="261.4" cy="518.3" r="20.6" fill="none" stroke="#3d5a80" stroke-width="2"/>
<circle cx="242.8" cy="777.9" r="6.4" fill="none" stroke="#ee6c4d" stroke-width="2"/>
<circle cx="419.4" cy="253.2" r="21.8" fill="none" stroke="#f4a261" stroke-width="2"/>
<circle cx="402.9" cy="788.4" r="9.7" fill="none" stroke="#ee6c4d" stroke-width="2"/>
<circle cx="514.3" cy="403.3" r="3.4" fill="none" stroke="#98c1d9" stroke-width="2"/>
<circle cx="113.9" cy="622.5" r="10.1" fill="none" stroke="#f4a261" stroke-width="2"/>
<circle cx="686.7" cy="636.2" r="14.8" fill="none" stroke="#e0fbfc" stroke-width="2"/>
<circle cx="483.5" cy="178.2" r="11.0" fill="none" stroke="#3d5a80" stroke-width="2"/>
<circle cx="347.7" cy="441.5" r="8.5" fill="none" stroke="#98c1d9" stroke-width="2"/>
<circle cx="314.2" cy="456.3" r="22.1" fill="none" stroke="#ee6c4d" stroke-width="2"/>
<circle cx="408.8" cy="93.0" r="8.3" fill="none" stroke="#e0fbfc" stroke-width="2"/>
<circle cx="86.1" cy="181.4" r="10.9" fill="none" stroke="#f4a261" stroke-width="2"/>
<circle cx="415.1" cy="651.9" r="12.0" fill="none" stroke="#ee6c4d" stroke-width="2"/>
<circle cx="256.1" cy="694.7" r="6.9" fill="none" stroke="#98c1d9" stroke-width="2"/>
<circle cx="107.2" cy="356.3" r="5.1" fill="none" stroke="#e0fbfc" stroke-width="2"/>
<circle cx="43.8" cy="715.8" r="7.6" fill="none" stroke="#f4a261" stroke-width="2"/>
<circle cx="499.7" cy="631.5" r="17.6" fill="none" stroke="#ee6c4d" stroke-width="2"/>
<circle cx="135.9" cy="239.7" r="6.4" fill="none" stroke="#f4a261" stroke-width="2"/>
<circle cx="380.2" cy="747.0" r="17.3" fill="none" stroke="#f4a261" stroke-width="2"/>
<circle cx="248.2" cy="632.5" r="12.2" fill="none" stroke="#f4a261" stroke-width="2"/>
<circle cx="189.8" cy="640.2" r="19.0" fill="none" stroke="#3d5a80" stroke-width="2"/>
<circle cx="602.7" cy="632.4" r="4.9" fill="none" stroke="#ee6c4d" stroke-width="2"/>
<circle cx="607.5" cy="754.6" r="12.9" fill="none" stroke="#e0fbfc" stroke-width="2"/>
<circle cx="514.4" cy="606.6" r="8.0" fill="none" stroke="#f4a261" stroke-width="2"/>
<circle cx="266.9" cy="791.2" r="7.2" fill="none" stroke="#ee6c4d" stroke-width="2"/>
<circle cx="63.1" cy="208.1" r="10.3" fill="none" stroke="#f4a261" stroke-width="2"/>
<circle cx="499.0" cy="296.9" r="6.6" fill="none" stroke="#3d5a80" stroke-width="2"/>
<circle cx="11.3" cy="376.2" r="7.4" fill="none" stroke="#98c1d9" stroke-width="2"/>
<circle cx="120.1" cy="766.7" r="7.5" fill="none" stroke="#ee6c4d" stroke-width="2"/>
<circle cx="43.9" cy="27.3" r="8.3" fill="none" stroke="#3d5a80" stroke-width="2"/>
<circle cx="34.0" cy="769.1" r="16.7" fill="none" stroke="#98c1d9" stroke-width="2"/>
<circle cx="402.3" cy="733.9" r="6.0" fill="none" stroke="#ee6c4d" stroke-width="2"/>
<circle cx="782.9" cy="731.0" r="3.7" fill="none" stroke="#ee6c4d" stroke-width="2"/>
<circle cx="132.8" cy="784.7" r="11.2" fill="none" stroke="#3d5a80" stroke-width="2"/>
<circle cx="687.1" cy="243.7" r="4.6" fill="none" stroke="#ee6c4d" stroke-width="2"/>
<circle cx="22.8" cy="419.1" r="6.7" fill="none" stroke="#98c1d9" stroke-width="2"/>
<circle cx="130.7" cy="43.3" r="6.6" fill="none" stroke="#98c1d9" stroke-width="2"/>
<circle cx="746.1" cy="709.8" r="8.5" fill="none" stroke="#e0fbfc" stroke-width="2"/>
<circle cx="743.8" cy="46.9" r="3.7" fill="none" stroke="#e0fbfc" stroke-width="2"/>
<circle cx="266.7" cy="173.7" r="3.9" fill="none" stroke="#e0fbfc" stroke-width="2"/>
<circle cx="217.4" cy="176.3" r="17.6" fill="none" stroke="#e0fbfc" stroke-width="2"/>
<circle cx="84.7" cy="525.8" r="9.1" fill="none" stroke="#e0fbfc" stroke-width="2"/>
<circle cx="776.5" cy="98.0" r="17.7" fill="none" stroke="#f4a261" stroke-width="2"/>
<circle cx="783.5" cy="211.8" r="3.1" fill="none" stroke="#ee6c4d" stroke-width="2"/>
<circle cx="163.7" cy="400.2" r="7.0" fill="none" stroke="#f4a261" stroke-width="2"/>
<circle cx="776.5" cy="366.5" r="10.5" fill="none" stroke="#ee6c4d" stroke-width="2"/>
<circle cx="143.8" cy="708.1" r="7.5" fill="none" stroke="#3d5a80" stroke-width="2"/>
<circle cx="115.8" cy="392.7" r="3.6" fill="none" stroke="#e0fbfc" stroke-width="2"/>
<circle cx="685.1" cy="453.3" r="11.1" fill="none" stroke="#f4a261" stroke-width="2"/>
<circle cx="351.1" cy="350.6" r="9.6" fill="none" stroke="#e0fbfc" stroke-width="2"/>
<circle cx="779.8" cy="702.8" r="13.1" fill="none" stroke="#98c1d9" stroke-width="2"/>
<circle cx="166.5" cy="115.3" r="6.4" fill="none" stroke="#e0fbfc" stroke-width="2"/>
<circle cx="676.9" cy="47.6" r="20.9" fill="none" stroke="#e0fbfc" stroke-width="2"/>
<circle cx="576.5" cy="216.7" r="4.6" fill="none" stroke="#e0fbfc" stroke-width="2"/>
<circle cx="632.8" cy="162.5" r="10.5" fill="none" stroke="#e0fbfc" stroke-width="2"/>
<circle cx="111.8" cy="126.4" r="14.4" fill="none" stroke="#f4a261" stroke-width="2"/>
<circle cx="49.2" cy="355.1" r="3.3" fill="none" stroke="#3d5a80" stroke-width="2"/>
<circle cx="690.0" cy="481.4" r="5.3" fill="none" stroke="#f4a261" stroke-width="2"/>
<circle cx="161.2" cy="315.3" r="19.2" fill="none" stroke="#98c1d9" stroke-width="2"/>
<circle cx="269.7" cy="686.1" r="4.5" fill="none" stroke="#ee6c4d" stroke-width="2"/>
<circle cx="11.3" cy="500.2" r="4.0" fill="none" stroke="#ee6c4d" stroke-width="2"/>
<circle cx="63.0" cy="361.2" r="6.7" fill="none" stroke="#f4a261" stroke-width="2"/>
<circle cx="718.3" cy="183.5" r="12.0" fill="none" stroke="#ee6c4d" stroke-width="2"/>
<circle cx="596.2" cy="682.8" r="9.3" fill="none" stroke="#e0fbfc" stroke-width="2"/>
<circle cx="548.6" cy="208.0" r="5.1" fill="none" stroke="#e0fbfc" stroke-width="2"/>
<circle cx="762.0" cy="16.9" r="5.2" fill="none" stroke="#e0fbfc" stroke-width="2"/>
<circle cx="791.1" cy="446.4" r="4.4" fill="none" stroke="#3d5a80" stroke-width="2"/>
<circle cx="84.2" cy="581.6" r="7.8" fill="none" stroke="#ee6c4d" stroke-width="2"/>
<circle cx="524.0" cy="792.2" r="5.2" fill="none" stroke="#f4a261" stroke-width="2"/>
<circle cx="16.0" cy="245.6" r="3.4" fill="none" stroke="#98c1d9" stroke-width="2"/>
<circle cx="236.7" cy="76.6" r="12.2" fill="none" stroke="#98c1d9" stroke-width="2"/>
<circle cx="399.6" cy="422.5" r="11.4" fill="none" stroke="#98c1d9" stroke-width="2"/>
<circle cx="442.1" cy="788.1" r="7.1" fill="none" stroke="#98c1d9" stroke-width="2"/>
<circle cx="206.2" cy="8.1" r="4.9" fill="none" stroke="#e0fbfc" stroke-width="2"/>
<circle cx="495.5" cy="67.4" r="21.4" fill="none" stroke="#ee6c4d" stroke-width="2"/>
<circle cx="473.5" cy="646.1" r="10.1" fill="none" stroke="#f4a261" stroke-width="2"/>
<circle cx="545.0" cy="232.6" r="5.8" fill="none" stroke="#98c1d9" stroke-width="2"/>
<circle cx="162.6" cy="157.0" r="5.3" fill="none" stroke="#98c1d9" stroke-width="2"/>
<circle cx="292.6" cy="348.2" r="12.3" fill="none" stroke="#f4a261" stroke-width="2"/>
<circle cx="263.2" cy="327.7" r="12.9" fill="none" stroke="#3d5a80" stroke-width="2"/>
<circle cx="226.6" cy="683.6" r="7.5" fill="none" stroke="#e0fbfc" stroke-width="2"/>
<circle cx="324.0" cy="427.6" r="3.1" fill="none" stroke="#ee6c4d" stroke-width="2"/>
<circle cx="234.1" cy="275.7" r="10.7" fill="none" stroke="#3d5a80" stroke-width="2"/>
<circle cx="278.7" cy="661.6" r="3.1" fill="none" stroke="#98c1d9" stroke-width="2"/>
<circle cx="193.2" cy="497.5" r="5.1" fill="none" stroke="#ee6c4d" stroke-width="2"/>
<circle cx="665.8" cy="692.2" r="4.1" fill="none" stroke="#e0fbfc" stroke-width="2"/>
<circle cx="390.0" cy="473.0" r="10.4" fill="none" stroke="#ee6c4d" stroke-width="2"/>
<circle cx="716.1" cy="626.8" r="12.4" fill="none" stroke="#f4a261" stroke-width="2"/>
<circle cx="196.8" cy="27.3" r="5.0" fill="none" stroke="#ee6c4d" stroke-width="2"/>
<circle cx="538.6" cy="755.5" r="11.9" fill="none" stroke="#98c1d9" stroke-width="2"/>
<circle cx="555.7" cy="13.3" r="4.0" fill="none" stroke="#e0fbfc" stroke-width="2"/>
<circle cx="335.0" cy="698.2" r="13.1" fill="none" stroke="#3d5a80" stroke-width="2"/>
<circle cx="787.4" cy="196.3" r="4.0" fill="none" stroke="#3d5a80" stroke-width="2"/>
<circle cx="179.3" cy="459.8" r="6.2" fill="none" stroke="#ee6c4d" stroke-width="2"/>
<circle cx="376.8" cy="252.2" r="7.6" fill="none" stroke="#e0fbfc" stroke-width="2"/>
<circle cx="311.3" cy="670.8" r="5.1" fill="none" stroke="#f4a261" stroke-width="2"/>
<circle cx="132.7" cy="331.6" r="9.1" fill="none" stroke="#e0fbfc" stroke-width="2"/>
<circle cx="770.8" cy="43.3" r="11.0" fill="none" stroke="#ee6c4d" stroke-width="2"/>
<circle cx="787.1" cy="322.1" r="8.1" fill="none" stroke="#ee6c4d" stroke-width="2"/>
<circle cx="88.0" cy="375.1" r="7.0" fill="none" stroke="#e0fbfc" stroke-width="2"/>
<circle cx="18.4" cy="271.3" r="3.9" fill="none" stroke="#f4a261" stroke-width="2"/>
<circle cx="234.7" cy="51.7" r="4.5" fill="none" stroke="#98c1d9" stroke-width="2"/>
<circle cx="106.7" cy="380.9" r="4.5" fill="none" stroke="#e0fbfc" stroke-width="2"/>
<circle cx="509.5" cy="262.6" r="5.7" fill="none" stroke="#e0fbfc" stroke-width="2"/>
<circle cx="137.0" cy="169.3" r="5.5" fill="none" stroke="#e0fbfc" stroke-width="2"/>
<circle cx="222.9" cy="416.1" r="15.7" fill="none" stroke="#e0fbfc" stroke-width="2"/>
<circle cx="88.9" cy="652.6" r="12.2" fill="none" stroke="#f4a261" stroke-width="2"/>
<circle cx="292.0" cy="491.4" r="8.6" fill="none" stroke="#98c1d9" stroke-width="2"/>
<circle cx="49.5" cy="640.8" r="4.8" fill="none" stroke="#3d5a80" stroke-width="2"/>
<circle cx="338.4" cy="303.2" r="4.5" fill="none" stroke="#3d5a80" stroke-width="2"/>
<circle cx="648.1" cy="402.3" r="5.9" fill="none" stroke="#98c1d9" stroke-width="2"/>
<circle cx="786.5" cy="657.0" r="5.2" fill="none" stroke="#3d5a80" stroke-width="2"/>
<circle cx="77.5" cy="99.6" r="11.2" fill="none" stroke="#3d5a80" stroke-width="2"/>
<circle cx="471.8" cy="93.7" r="3.8" fill="none" stroke="#3d5a80" stroke-width="2"/>
<circle cx="521.2" cy="112.5" r="4.9" fill="none" stroke="#3d5a80" stroke-width="2"/>
<circle cx="768.5" cy="579.1" r="4.6" fill="none" stroke="#98c1d9" stroke-width="2"/>
<circle cx="572.5" cy="170.2" r="3.6" fill="none" stroke="#e0fbfc" stroke-width="2"/>
<circle cx="508.1" cy="459.6" r="10.8" fill="none" stroke="#e0fbfc" stroke-width="2"/>
<circle cx="424.8" cy="103.3" r="3.7" fill="none" stroke="#ee6c4d" stroke-width="2"/>
<circle cx="205.3" cy="725.6" r="7.2" fill="none" stroke="#e0fbfc" stroke-width="2"/>
<circle cx="156.6" cy="362.2" r="8.5" fill="none" stroke="#e0fbfc" stroke-width="2"/>
<circle cx="377.8" cy="304.2" r="15.5" fill="none" stroke="#f4a261" stroke-width="2"/>
<circle cx="131.8" cy="650.9" r="7.9" fill="none" stroke="#98c1d9" stroke-width="2"/>
<circle cx="180.1" cy="433.0" r="5.4" fill="none" stroke="#3d5a80" stroke-width="2"/>
<circle cx="335.2" cy="377.3" r="5.1" fill="none" stroke="#98c1d9" stroke-width="2"/>
<circle cx="354.3" cy="483.9" r="4.2" fill="none" stroke="#e0fbfc" stroke-width="2"/>
<circle cx="698.3" cy="602.2" r="11.7" fill="none" stroke="#3d5a80" stroke-width="2"/>
<circle cx="603.9" cy="223.7" r="12.8" fill="none" stroke="#e0fbfc" stroke-width="2"/>
<circle cx="291.5" cy="177.4" r="5.6" fill="none" stroke="#3d5a80" stroke-width="2"/>
<circle cx="496.5" cy="12.3" r="10.9" fill="none" stroke="#e0fbfc" stroke-width="2"/>
<circle cx="144.6" cy="760.4" r="8.1" fill="none" stroke="#98c1d9" stroke-width="2"/>
<circle cx="15.9" cy="672.7" r="7.7" fill="none" stroke="#f4a261" stroke-width="2"/>
<circle cx="746.1" cy="366.1" r="11.0" fill="none" stroke="#ee6c4d" stroke-width="2"/>
<circle cx="8.9" cy="282.1" r="5.8" fill="none" stroke="#f4a261" stroke-width="2"/>
<circle cx="576.5" cy="580.9" r="4.0" fill="none" stroke="#e0fbfc" stroke-width="2"/>
<circle cx="611.7" cy="182.1" r="9.7" fill="none" stroke="#3d5a80" stroke-width="2"/>
<circle cx="448.0" cy="671.2" r="4.7" fill="none" stroke="#e0fbfc" stroke-width="2"/>
<circle cx="585.4" cy="612.5" r="5.0" fill="none" stroke="#98c1d9" stroke-width="2"/>
<circle cx="639.0" cy="287.3" r="4.5" fill="none" stroke="#3d5a80" stroke-width="2"/>
<circle cx="386.2" cy="230.9" r="4.6" fill="none" stroke="#e0fbfc" stroke-width="2"/>
<circle cx="43.0" cy="603.6" r="4.0" fill="none" stroke="#e0fbfc" stroke-width="2"/>
<circle cx="167.7" cy="541.8" r="14.3" fill="none" stroke="#e0fbfc" stroke-width="2"/>
<circle cx="765.3" cy="469.0" r="10.4" fill="none" stroke="#ee6c4d" stroke-width="2"/>
<circle cx="549.3" cy="256.6" r="4.0" fill="none" stroke="#f4a261" stroke-width="2"/>
<circle cx="416.0" cy="138.1" r="3.2" fill="none" stroke="#e0fbfc" stroke-width="2"/>
<circle cx="53.1" cy="732.7" r="4.6" fill="none" stroke="#e0fbfc" stroke-width="2"/>
<circle cx="738.0" cy="197.8" r="6.9" fill="none" stroke="#3d5a80" stroke-width="2"/>
<circle cx="443.5" cy="276.5" r="5.4" fill="none" stroke="#3d5a80" stroke-width="2"/>
<circle cx="601.0" cy="383.1" r="9.9" fill="none" stroke="#e0fbfc" stroke-width="2"/>
<circle cx="492.8" cy="378.7" r="3.1" fill="none" stroke="#ee6c4d" stroke-width="2"/>
<circle cx="280.0" cy="307.2" r="9.7" fill="none" stroke="#98c1d9" stroke-width="2"/>
<circle cx="630.2" cy="20.6" r="18.8" fill="none" stroke="#e0fbfc" stroke-width="2"/>
<circle cx="111.2" cy="560.5" r="8.2" fill="none" stroke="#3d5a80" stroke-width="2"/>
<circle cx="363.3" cy="226.3" r="12.0" fill="none" stroke="#f4a261" stroke-width="2"/>
<circle cx="626.6" cy="696.2" r="15.9" fill="none" stroke="#3d5a80" stroke-width="2"/>
<circle cx="654.1" cy="155.2" r="3.8" fill="none" stroke="#ee6c4d" stroke-width="2"/>
<circle cx="573.9" cy="20.6" r="7.9" fill="none" stroke="#e0fbfc" stroke-width="2"/>
<circle cx="725.4" cy="23.9" r="6.8" fill="none" stroke="#ee6c4d" stroke-width="2"/>
<circle cx="168.0" cy="713.3" r="3.9" fill="none" stroke="#98c1d9" stroke-width="2"/>
<circle cx="620.3" cy="640.5" r="7.1" fill="none" stroke="#ee6c4d" stroke-width="2"/>
<circle cx="491.9" cy="40.5" r="3.1" fill="none" stroke="#3d5a80" stroke-width="2"/>
<circle cx="430.4" cy="677.5" r="5.1" fill="none" stroke="#98c1d9" stroke-width="2"/>
<circle cx="506.2" cy="99.5" r="8.4" fill="none" stroke="#e0fbfc" stroke-width="2"/>
<circle cx="270.4" cy="451.5" r="7.5" fill="none" stroke="#3d5a80" stroke-width="2"/>
<circle cx="782.7" cy="242.3" r="11.6" fill="none" stroke="#3d5a80" stroke-width="2"/>
<circle cx="473.0" cy="319.8" r="7.2" fill="none" stroke="#ee6c4d" stroke-width="2"/>
<circle cx="294.6" cy="21.5" r="3.8" fill="none" stroke="#98c1d9" stroke-width="2"/>
<circle cx="484.8" cy="277.0" r="15.6" fill="none" stroke="#98c1d9" stroke-width="2"/>
<circle cx="387.7" cy="502.5" r="12.5" fill="none" stroke="#f4a261" stroke-width="2"/>
<circle cx="143.0" cy="541.1" r="5.8" fill="none" stroke="#3d5a80" stroke-width="2"/>
<circle cx="174.6" cy="181.0" r="3.0" fill="none" stroke="#3d5a80" stroke-width="2"/>
<circle cx="150.2" cy="594.7" r="6.4" fill="none" stroke="#3d5a80" stroke-width="2"/>
<circle cx="351.5" cy="296.7" r="6.7" fill="none" stroke="#f4a261" stroke-width="2"/>
<circle cx="339.5" cy="213.1" r="12.5" fill="none" stroke="#f4a261" stroke-width="2"/>
<circle cx="166.5" cy="594.7" r="3.9" fill="none" stroke="#3d5a80" stroke-width="2"/>
<circle cx="382.5" cy="784.7" r="5.0" fill="none" stroke="#f4a261" stroke-width="2"/>
<circle cx="140.7" cy="374.9" r="4.6" fill="none" stroke="#3d5a80" stroke-width="2"/>
<circle cx="694.2" cy="368.6" r="3.0" fill="none" stroke="#3d5a80" stroke-width="2"/>
<circle cx="525.5" cy="247.3" r="4.4" fill="none" stroke="#98c1d9" stroke-width="2"/>
<circle cx="755.5" cy="559.1" r="6.4" fill="none" stroke="#98c1d9" stroke-width="2"/>
<circle cx="758.4" cy="572.7" r="3.3" fill="none" stroke="#e0fbfc" stroke-width="2"/>
<circle cx="692.8" cy="568.7" r="3.2" fill="none" stroke="#e0fbfc" stroke-width="2"/>
<circle cx="217.7" cy="718.2" r="4.2" fill="none" stroke="#ee6c4d" stroke-width="2"/>
<circle cx="255.3" cy="660.8" r="3.2" fill="none" stroke="#f4a261" stroke-width="2"/>
<circle cx="6.8" cy="440.6" r="5.0" fill="none" stroke="#f4a261" stroke-width="2"/>
<circle cx="162.1" cy="43.6" r="3.5" fill="none" stroke="#98c1d9" stroke-width="2"/>
<circle cx="449.0" cy="639.0" r="12.5" fill="none" stroke="#f4a261" stroke-width="2"/>
<circle cx="201.3" cy="450.2" r="3.3" fill="none" stroke="#e0fbfc" stroke-width="2"/>
<circle cx="268.2" cy="160.3" r="5.7" fill="none" stroke="#3d5a80" stroke-width="2"/>
<circle cx="21.9" cy="475.7" r="4.9" fill="none" stroke="#f4a261" stroke-width="2"/>
<circle cx="738.2" cy="660.5" r="17.7" fill="none" stroke="#e0fbfc" stroke-width="2"/>
<circle cx="191.9" cy="531.7" r="9.5" fill="none" stroke="#e0fbfc" stroke-width="2"/>
<circle cx="24.0" cy="622.7" r="7.6" fill="none" stroke="#e0fbfc" stroke-width="2"/>
<circle cx="26.2" cy="602.3" r="7.2" fill="none" stroke="#98c1d9" stroke-width="2"/>
<circle cx="35.7" cy="399.4" r="5.6" fill="none" stroke="#98c1d9" stroke-width="2"/>
<circle cx="672.4" cy="10.4" r="8.5" fill="none" stroke="#f4a261" stroke-width="2"/>
<circle cx="560.8" cy="137.3" r="5.8" fill="none" stroke="#e0fbfc" stroke-width="2"/>
<circle cx="207.9" cy="782.7" r="7.2" fill="none" stroke="#f4a261" stroke-width="2"/>
<circle cx="77.0" cy="347.6" r="7.3" fill="none" stroke="#3d5a80" stroke-width="2"/>
<circle cx="362.9" cy="9.0" r="6.5" fill="none" stroke="#98c1d9" stroke-width="2"/>
<circle cx="164.9" cy="679.2" r="9.1" fill="none" stroke="#f4a261" stroke-width="2"/>
<circle cx="190.9" cy="421.2" r="4.9" fill="none" stroke="#3d5a80" stroke-width="2"/>
<circle cx="268.0" cy="24.7" r="8.6" fill="none" stroke="#ee6c4d" stroke-width="2"/>
<circle cx="210.3" cy="206.8" r="6.6" fill="none" stroke="#98c1d9" stroke-width="2"/>
<circle cx="421.4" cy="694.1" r="3.6" fill="none" stroke="#98c1d9" stroke-width="2"/>
<circle cx="5.5" cy="237.1" r="5.3" fill="none" stroke="#ee6c4d" stroke-width="2"/>
<circle cx="134.8" cy="635.0" r="4.6" fill="none" stroke="#f4a261" stroke-width="2"/>
<circle cx="18.4" cy="568.2" r="5.5" fill="none" stroke="#3d5a80" stroke-width="2"/>
<circle cx="544.7" cy="418.9" r="9.9" fill="none" stroke="#e0fbfc" stroke-width="2"/>
<circle cx="135.7" cy="615.1" r="9.7" fill="none" stroke="#e0fbfc" stroke-width="2"/>
<circle cx="268.5" cy="710.3" r="4.4" fill="none" stroke="#f4a261" stroke-width="2"/>
<circle cx="712.5" cy="132.0" r="7.2" fill="none" stroke="#98c1d9" stroke-width="2"/>
<circle cx="458.9" cy="268.8" r="4.9" fill="none" stroke="#98c1d9" stroke-width="2"/>
<circle cx="587.9" cy="44.7" r="10.1" fill="none" stroke="#e0fbfc" stroke-width="2"/>
<circle cx="756.3" cy="528.1" r="4.1" fill="none" stroke="#e0fbfc" stroke-width="2"/>
<circle cx="110.5" cy="159.2" r="5.7" fill="none" stroke="#e0fbfc" stroke-width="2"/>
<circle cx="582.0" cy="450.1" r="17.1" fill="none" stroke="#3d5a80" stroke-width="2"/>
<circle cx="594.6" cy="784.3" r="12.5" fill="none" stroke="#98c1d9" stroke-width="2"/>
<circle cx="351.3" cy="256.1" r="7.5" fill="none" stroke="#ee6c4d" stroke-width="2"/>
<circle cx="283.6" cy="546.3" r="9.2" fill="none" stroke="#3d5a80" stroke-width="2"/>
<circle cx="217.4" cy="81.5" r="4.7" fill="none" stroke="#3d5a80" stroke-width="2"/>
<circle cx="273.9" cy="632.9" r="5.8" fill="none" stroke="#f4a261" stroke-width="2"/>
<circle cx="789.3" cy="273.3" r="6.9" fill="none" stroke="#e0fbfc" stroke-width="2"/>
<circle cx="73.5" cy="792.2" r="7.3" fill="none" stroke="#ee6c4d" stroke-width="2"/>
<circle cx="46.7" cy="196.2" r="6.2" fill="none" stroke="#98c1d9" stroke-width="2"/>
<circle cx="112.3" cy="791.7" r="6.7" fill="none" stroke="#e0fbfc" stroke-width="2"/>
<circle cx="352.5" cy="38.3" r="9.0" fill="none" stroke="#ee6c4d" stroke-width="2"/>
<circle cx="121.0" cy="749.5" r="3.1" fill="none" stroke="#3d5a80" stroke-width="2"/>
<circle cx="481.0" cy="34.6" r="4.3" fill="none" stroke="#e0fbfc" stroke-width="2"/>
<circle cx="572.3" cy="419.0" r="4.7" fill="none" stroke="#98c1d9" stroke-width="2"/>
<circle cx="447.8" cy="93.7" r="15.9" fill="none" stroke="#3d5a80" stroke-width="2"/>
<circle cx="544.8" cy="289.9" r="3.5" fill="none" stroke="#e0fbfc" stroke-width="2"/>
<circle cx="218.1" cy="508.9" r="14.1" fill="none" stroke="#f4a261" stroke-width="2"/>
<circle cx="510.2" cy="439.2" r="4.8" fill="none" stroke="#98c1d9" stroke-width="2"/>
<circle cx="302.1" cy="8.1" r="5.5" fill="none" stroke="#3d5a80" stroke-width="2"/>
<circle cx="233.6" cy="27.1" r="12.3" fill="none" stroke="#98c1d9" stroke-width="2"/>
<circle cx="223.7" cy="295.6" r="4.4" fill="none" stroke="#f4a261" stroke-width="2"/>
<circle cx="96.6" cy="634.1" r="5.7" fill="none" stroke="#ee6c4d" stroke-width="2"/>
<circle cx="66.0" cy="642.7" r="5.5" fill="none" stroke="#f4a261" stroke-width="2"/>
<circle cx="258.9" cy="610.4" r="3.7" fill="none" stroke="#98c1d9" stroke-width="2"/>
<circle cx="41.8" cy="661.1" r="4.4" fill="none" stroke="#3d5a80" stroke-width="2"/>
<circle cx="150.1" cy="181.6" r="3.3" fill="none" stroke="#98c1d9" stroke-width="2"/>
<circle cx="752.3" cy="58.8" r="6.0" fill="none" stroke="#98c1d9" stroke-width="2"/>
<circle cx="450.1" cy="200.7" r="4.0" fill="none" stroke="#ee6c4d" stroke-width="2"/>
<circle cx="744.9" cy="788.1" r="6.9" fill="none" stroke="#3d5a80" stroke-width="2"/>
<circle cx="784.1" cy="783.4" r="15.2" fill="none" stroke="#ee6c4d" stroke-width="2"/>
<circle cx="334.6" cy="9.1" r="5.2" fill="none" stroke="#f4a261" stroke-width="2"/>
<circle cx="764.4" cy="675.3" r="9.8" fill="none" stroke="#98c1d9" stroke-width="2"/>
<circle cx="625.6" cy="219.2" r="5.6" fill="none" stroke="#98c1d9" stroke-width="2"/>
<circle cx="164.3" cy="222.9" r="7.5" fill="none" stroke="#e0fbfc" stroke-width="2"/>
<circle cx="618.2" cy="775.3" r="5.2" fill="none" stroke="#e0fbfc" stroke-width="2"/>
<circle cx="389.0" cy="143.5" r="3.2" fill="none" stroke="#98c1d9" stroke-width="2"/>
<circle cx="564.6" cy="482.3" r="7.8" fill="none" stroke="#f4a261" stroke-width="2"/>
<circle cx="365.0" cy="705.9" r="4.3" fill="none" stroke="#98c1d9" stroke-width="2"/>
<circle cx="268.5" cy="141.4" r="6.6" fill="none" stroke="#e0fbfc" stroke-width="2"/>
<circle cx="356.1" cy="193.7" r="6.0" fill="none" stroke="#ee6c4d" stroke-width="2"/>
<circle cx="8.3" cy="635.8" r="6.1" fill="none" stroke="#e0fbfc" stroke-width="2"/>
<circle cx="750.0" cy="477.7" r="5.2" fill="none" stroke="#3d5a80" stroke-width="2"/>
<circle cx="183.4" cy="406.0" r="4.7" fill="none" stroke="#3d5a80" stroke-width="2"/>
<circle cx="522.3" cy="283.6" r="10.6" fill="none" stroke="#98c1d9" stroke-width="2"/>
<circle cx="623.6" cy="355.9" r="8.7" fill="none" stroke="#3d5a80" stroke-width="2"/>
<circle cx="677.0" cy="107.9" r="6.2" fill="none" stroke="#e0fbfc" stroke-width="2"/>
<circle cx="596.3" cy="494.1" r="9.4" fill="none" stroke="#f4a261" stroke-width="2"/>
<circle cx="647.7" cy="139.4" r="10.5" fill="none" stroke="#3d5a80" stroke-width="2"/>
<circle cx="604.7" cy="611.1" r="5.7" fill="none" stroke="#e0fbfc" stroke-width="2"/>
<circle cx="460.0" cy="71.9" r="4.5" fill="none" stroke="#ee6c4d" stroke-width="2"/>
<circle cx="524.7" cy="216.3" r="14.4" fill="none" stroke="#ee6c4d" stroke-width="2"/>
<circle cx="59.4" cy="381.8" r="4.8" fill="none" stroke="#ee6c4d" stroke-width="2"/>
<circle cx="242.0" cy="352.7" r="4.2" fill="none" stroke="#98c1d9" stroke-width="2"/>
<circle cx="516.6" cy="486.8" r="4.0" fill="none" stroke="#e0fbfc" stroke-width="2"/>
<circle cx="668.6" cy="155.9" r="3.9" fill="none" stroke="#98c1d9" stroke-width="2"/>
<circle cx="547.6" cy="469.0" r="8.4" fill="none" stroke="#f4a261" stroke-width="2"/>
<circle cx="405.0" cy="314.4" r="4.9" fill="none" stroke="#ee6c4d" stroke-width="2"/>
<circle cx="283.5" cy="76.8" r="5.7" fill="none" stroke="#ee6c4d" stroke-width="2"/>
<circle cx="365.1" cy="23.2" r="5.6" fill="none" stroke="#f4a261" stroke-width="2"/>
<circle cx="766.2" cy="70.2" r="7.8" fill="none" stroke="#f4a261" stroke-width="2"/>
<circle cx="248.5" cy="704.9" r="3.4" fill="none" stroke="#3d5a80" stroke-width="2"/>
<circle cx="417.6" cy="120.2" r="7.0" fill="none" stroke="#ee6c4d" stroke-width="2"/>
<circle cx="388.6" cy="60.0" r="3.3" fill="none" stroke="#ee6c4d" stroke-width="2"/>
<circle cx="717.0" cy="518.5" r="7.9" fill="none" stroke="#e0fbfc" stroke-width="2"/>
<circle cx="681.4" cy="433.8" r="3.7" fill="none" stroke="#f4a261" stroke-width="2"/>
<circle cx="124.7" cy="668.4" r="6.1" fill="none" stroke="#e0fbfc" stroke-width="2"/>
<circle cx="93.0" cy="770.3" r="3.2" fill="none" stroke="#f4a261" stroke-width="2"/>
<circle cx="730.1" cy="567.9" r="9.0" fill="none" stroke="#ee6c4d" stroke-width="2"/>
<circle cx="719.1" cy="366.3" r="6.5" fill="none" stroke="#98c1d9" stroke-width="2"/>
<circle cx="705.6" cy="717.9" r="8.1" fill="none" stroke="#ee6c4d" stroke-width="2"/>
<circle cx="465.8" cy="407.0" r="5.3" fill="none" stroke="#f4a261" stroke-width="2"/>
<circle cx="15.8" cy="490.8" r="3.9" fill="none" stroke="#98c1d9" stroke-width="2"/>
<circle cx="91.5" cy="213.7" r="9.7" fill="none" stroke="#98c1d9" stroke-width="2"/>
<circle cx="662.8" cy="388.6" r="12.0" fill="none" stroke="#f4a261" stroke-width="2"/>
<circle cx="601.4" cy="662.4" r="7.7" fill="none" stroke="#ee6c4d" stroke-width="2"/>
<circle cx="433.0" cy="222.8" r="3.2" fill="none" stroke="#98c1d9" stroke-width="2"/>
<circle cx="214.7" cy="452.2" r="4.4" fill="none" stroke="#98c1d9" stroke-width="2"/>
<circle cx="461.4" cy="606.7" r="5.6" fill="none" stroke="#ee6c4d" stroke-width="2"/>
<circle cx="554.9" cy="774.6" r="4.4" fill="none" stroke="#ee6c4d" stroke-width="2"/>
</svg>
