<svg xmlns="http://www.w3.org/2000/svg" width="800" height="800" viewBox="0 0 800 800">
<rect width="800" height="800" fill="#0d1b2a"/>
<circle cx="253.0" cy="38.0" r="23.5" fill="none" stroke="#ee6c4d" stroke-width="2"/>
<circle cx="320.8" cy="388.7" r="20.6" fill="none" stroke="#98c1d9" stroke-width="2"/>
<circle cx="387.2" cy="337.3" r="22.3" fill="none" stroke="#ee6c4d" stroke-width="2"/>
<circle cx="39.8" cy="290.1" r="39.8" fill="none" stroke="#ee6c4d" stroke-width="2"/>
<circle cx="782.4" cy="348.7" r="13.4" fill="none" stroke="#e0fbfc" stroke-width="2"/>
<circle cx="630.0" cy="82.7" r="54.5" fill="none" stroke="#3d5a80" stroke-width="2"/>
<circle cx="360.3" cy="220.3" r="35.0" fill="none" stroke="#f4a261" stroke-width="2"/>
<circle cx="355.9" cy="64.4" r="19.2" fill="none" stroke="#98c1d9" stroke-width="2"/>
<circle cx="611.0" cy="318.8" r="44.1" fill="none" stroke="#e0fbfc" stroke-width="2"/>
<circle cx="136.6" cy="647.1" r="40.1" fill="none" stroke="#ee6c4d" stroke-width="2"/>
<circle cx="688.6" cy="593.4" r="40.7" fill="none" stroke="#f4a261" stroke-width="2"/>
<circle cx="619.7" cy="594.8" r="8.0" fill="none" stroke="#f4a261" stroke-width="2"/>
<circle cx="292.2" cy="540.8" r="53.3" fill="none" stroke="#ee6c4d" stroke-width="2"/>
<circle cx="659.6" cy="697.4" r="15.5" fill="none" stroke="#e0fbfc" stroke-width="2"/>
<circle cx="174.5" cy="323.2" r="51.4" fill="none" stroke="#98c1d9" stroke-width="2"/>
<circle cx="712.2" cy="443.8" r="36.6" fill="none" stroke="#ee6c4d" stroke-width="2"/>
<circle cx="536.6" cy="489.8" r="42.0" fill="none" stroke="#e0fbfc" stroke-width="2"/>
<circle cx="458.7" cy="55.5" r="30.5" fill="none" stroke="#3d5a80" stroke-width="2"/>
<circle cx="634.6" cy="450.2" r="5.4" fill="none" stroke="#3d5a80" stroke-width="2"/>
<circle cx="54.3" cy="455.4" r="24.5" fill="none" stroke="#ee6c4d" stroke-width="2"/>
<circle cx="294.2" cy="730.9" r="7.6" fill="none" stroke="#98c1d9" stroke-width="2"/>
<circle cx="457.9" cy="694.5" r="49.7" fill="none" stroke="#f4a261" stroke-width="2"/>
<circle cx="244.1" cy="396.2" r="27.2" fill="none" stroke="#f4a261" stroke-width="2"/>
<circle cx="774.1" cy="227.8" r="23.2" fill="none" stroke="#f4a261" stroke-width="2"/>
<circle cx="55.4" cy="78.8" r="29.3" fill="none" stroke="#ee6c4d" stroke-width="2"/>
<circle cx="325.8" cy="685.0" r="4.3" fill="none" stroke="#3d5a80" stroke-width="2"/>
<circle cx="484.9" cy="128.9" r="27.4" fill="none" stroke="#e0fbfc" stroke-width="2"/>
<circle cx="733.7" cy="73.4" r="16.5" fill="none" stroke="#e0fbfc" stroke-width="2"/>
<circle cx="124.5" cy="584.0" r="7.3" fill="none" stroke="#e0fbfc" stroke-width="2"/>
<circle cx="736.6" cy="546.0" r="14.6" fill="none" stroke="#ee6c4d" stroke-width="2"/>
<circle cx="53.6" cy="755.2" r="14.0" fill="none" stroke="#3d5a80" stroke-width="2"/>
<circle cx="527.5" cy="242.9" r="38.6" fill="none" stroke="#ee6c4d" stroke-width="2"/>
<circle cx="399.0" cy="259.9" r="10.8" fill="none" stroke="#ee6c4d" stroke-width="2"/>
<circle cx="242.8" cy="775.5" r="12.7" fill="none" stroke="#e0fbfc" stroke-width="2"/>
<circle cx="251.5" cy="211.6" r="32.1" fill="none" stroke="#f4a261" stroke-width="2"/>
<circle cx="484.1" cy="547.3" r="9.0" fill="none" stroke="#f4a261" stroke-width="2"/>
<circle cx="775.9" cy="418.8" r="16.2" fill="none" stroke="#3d5a80" stroke-width="2"/>
<circle cx="139.8" cy="466.7" r="28.2" fill="none" stroke="#e0fbfc" stroke-width="2"/>
<circle cx="585.7" cy="733.3" r="52.8" fill="none" stroke="#f4a261" stroke-width="2"/>
<circle cx="401.5" cy="404.4" r="38.4" fill="none" stroke="#e0fbfc" stroke-width="2"/>
<circle cx="231.1" cy="118.6" r="11.3" fill="none" stroke="#f4a261" stroke-width="2"/>
<circle cx="372.3" cy="15.1" r="9.7" fill="none" stroke="#e0fbfc" stroke-width="2"/>
<circle cx="54.3" cy="399.1" r="5.4" fill="none" stroke="#f4a261" stroke-width="2"/>
<circle cx="515.2" cy="575.6" r="25.5" fill="none" stroke="#ee6c4d" stroke-width="2"/>
<circle cx="531.7" cy="777.3" r="8.1" fill="none" stroke="#ee6c4d" stroke-width="2"/>
<circle cx="292.2" cy="303.0" r="58.9" fill="none" stroke="#3d5a80" stroke-width="2"/>
<circle cx="749.9" cy="149.1" r="8.3" fill="none" stroke="#f4a261" stroke-width="2"/>
<circle cx="182.0" cy="588.5" r="7.4" fill="none" stroke="#f4a261" stroke-width="2"/>
<circle cx="173.1" cy="412.1" r="16.0" fill="none" stroke="#98c1d9" stroke-width="2"/>
<circle cx="131.2" cy="104.0" r="21.1" fill="none" stroke="#3d5a80" stroke-width="2"/>
<circle cx="82.9" cy="514.1" r="17.3" fill="none" stroke="#e0fbfc" stroke-width="2"/>
<circle cx="529.2" cy="33.4" r="26.6" fill="none" stroke="#e0fbfc" stroke-width="2"/>
<circle cx="100.7" cy="196.3" r="5.9" fill="none" stroke="#ee6c4d" stroke-width="2"/>
<circle cx="575.0" cy="190.7" r="11.6" fill="none" stroke="#e0fbfc" stroke-width="2"/>
<circle cx="408.1" cy="756.5" r="25.6" fill="none" stroke="#f4a261" stroke-width="2"/>
<circle cx="734.2" cy="654.3" r="26.4" fill="none" stroke="#98c1d9" stroke-width="2"/>
<circle cx="556.8" cy="398.9" r="26.4" fill="none" stroke="#ee6c4d" stroke-width="2"/>
<circle cx="88.9" cy="340.2" r="18.4" fill="none" stroke="#3d5a80" stroke-width="2"/>
<circle cx="140.4" cy="41.3" r="34.9" fill="none" stroke="#ee6c4d" stroke-width="2"/>
<circle cx="616.8" cy="171.7" r="16.4" fill="none" stroke="#ee6c4d" stroke-width="2"/>
<circle cx="465.2" cy="346.7" r="13.8" fill="none" stroke="#ee6c4d" stroke-width="2"/>
<circle cx="737.8" cy="317.6" r="23.7" fill="none" stroke="#f4a261" stroke-width="2"/>
<circle cx="782.9" cy="124.9" r="15.3" fill="none" stroke="#e0fbfc" stroke-width="2"/>
<circle cx="61.3" cy="698.6" r="38.4" fill="none" stroke="#e0fbfc" stroke-width="2"/>
<circle cx="692.3" cy="47.9" r="9.7" fill="none" stroke="#3d5a80" stroke-width="2"/>
<circle cx="618.2" cy="541.5" r="5.6" fill="none" stroke="#98c1d9" stroke-width="2"/>
<circle cx="21.5" cy="46.2" r="7.4" fill="none" stroke="#ee6c4d" stroke-width="2"/>
<circle cx="652.5" cy="267.5" r="19.6" fill="none" stroke="#3d5a80" stroke-width="2"/>
<circle cx="584.5" cy="553.4" r="18.5" fill="none" stroke="#ee6c4d" stroke-width="2"/>
<circle cx="638.1" cy="436.9" r="5.9" fill="none" stroke="#ee6c4d" stroke-width="2"/>
<circle cx="301.1" cy="771.2" r="28.7" fill="none" stroke="#3d5a80" stroke-width="2"/>
<circle cx="701.0" cy="264.9" r="19.1" fill="none" stroke="#3d5a80" stroke-width="2"/>
<circle cx="664.1" cy="197.4" r="29.0" fill="none" stroke="#3d5a80" stroke-width="2"/>
<circle cx="276.3" cy="98.1" r="35.3" fill="none" stroke="#f4a261" stroke-width="2"/>
<circle cx="424.6" cy="560.3" r="41.6" fill="none" stroke="#e0fbfc" stroke-width="2"/>
<circle cx="293.5" cy="640.6" r="28.3" fill="none" stroke="#e0fbfc" stroke-width="2"/>
<circle cx="414.3" cy="110.2" r="6.8" fill="none" stroke="#98c1d9" stroke-width="2"/>
<circle cx="50.9" cy="616.5" r="26.2" fill="none" stroke="#ee6c4d" stroke-width="2"/>
<circle cx="159.6" cy="184.4" r="5.1" fill="none" stroke="#e0fbfc" stroke-width="2"/>
<circle cx="680.1" cy="400.2" r="14.7" fill="none" stroke="#3d5a80" stroke-width="2"/>
<circle cx="758.6" cy="722.2" r="32.5" fill="none" stroke="#f4a261" stroke-width="2"/>
<circle cx="164.0" cy="231.8" r="22.8" fill="none" stroke="#f4a261" stroke-width="2"/>
<circle cx="461.1" cy="388.6" r="20.2" fill="none" stroke="#ee6c4d" stroke-width="2"/>
<circle cx="100.1" cy="768.6" r="13.5" fill="none" stroke="#e0fbfc" stroke-width="2"/>
<circle cx="11.4" cy="197.1" r="3.5" fill="none" stroke="#3d5a80" stroke-width="2"/>
<circle cx="591.0" cy="215.6" r="5.0" fill="none" stroke="#98c1d9" stroke-width="2"/>
<circle cx="420.0" cy="65.7" r="7.3" fill="none" stroke="#f4a261" stroke-width="2"/>
<circle cx="484.6" cy="768.1" r="8.4" fill="none" stroke="#f4a261" stroke-width="2"/>
<circle cx="17.9" cy="524.9" r="3.2" fill="none" stroke="#98c1d9" stroke-width="2"/>
<circle cx="656.6" cy="141.3" r="6.3" fill="none" stroke="#e0fbfc" stroke-width="2"/>
<circle cx="720.7" cy="765.5" r="6.0" fill="none" stroke="#e0fbfc" stroke-width="2"/>
<circle cx="751.5" cy="484.2" r="13.8" fill="none" stroke="#98c1d9" stroke-width="2"/>
<circle cx="126.1" cy="238.2" r="10.5" fill="none" stroke="#f4a261" stroke-width="2"/>
<circle cx="39.0" cy="365.1" r="6.9" fill="none" stroke="#98c1d9" stroke-width="2"/>
<circle cx="209.6" cy="539.2" r="24.4" fill="none" stroke="#ee6c4d" stroke-width="2"/>
<circle cx="535.6" cy="659.3" r="26.1" fill="none" stroke="#ee6c4d" stroke-width="2"/>
<circle cx="657.6" cy="528.9" r="9.4" fill="none" stroke="#f4a261" stroke-width="2"/>
<circle cx="757.1" cy="525.5" r="9.0" fill="none" stroke="#f4a261" stroke-width="2"/>
<circle cx="566.3" cy="54.8" r="4.0" fill="none" stroke="#e0fbfc" stroke-width="2"/>
<circle cx="226.1" cy="735.6" r="23.8" fill="none" stroke="#98c1d9" stroke-width="2"/>
<circle cx="517.6" cy="356.0" r="21.8" fill="none" stroke="#ee6c4d" stroke-width="2"/>
<circle cx="705.5" cy="707.9" r="8.9" fill="none" stroke="#3d5a80" stroke-width="2"/>
<circle cx="685.3" cy="531.1" r="15.1" fill="none" stroke="#f4a261" stroke-width="2"/>
<circle cx="223.2" cy="474.0" r="5.4" fill="none" stroke="#f4a261" stroke-width="2"/>
<circle cx="112.4" cy="553.5" r="12.0" fill="none" stroke="#f4a261" stroke-width="2"/>
<circle cx="441.7" cy="465.5" r="30.2" fill="none" stroke="#3d5a80" stroke-width="2"/>
<circle cx="531.7" cy="83.6" r="8.9" fill="none" stroke="#3d5a80" stroke-width="2"/>
<circle cx="29.1" cy="155.2" r="13.9" fill="none" stroke="#e0fbfc" stroke-width="2"/>
<circle cx="311.5" cy="707.0" r="13.3" fill="none" stroke="#ee6c4d" stroke-width="2"/>
<circle cx="8.6" cy="770.8" r="7.2" fill="none" stroke="#e0fbfc" stroke-width="2"/>
<circle cx="597.8" cy="614.8" r="8.2" fill="none" stroke="#ee6c4d" stroke-width="2"/>
<circle cx="23.6" cy="372.2" r="7.9" fill="none" stroke="#3d5a80" stroke-width="2"/>
<circle cx="787.1" cy="444.2" r="8.8" fill="none" stroke="#ee6c4d" stroke-width="2"/>
<circle cx="368.8" cy="158.9" r="20.5" fill="none" stroke="#98c1d9" stroke-width="2"/>
<circle cx="731.1" cy="24.4" r="9.9" fill="none" stroke="#98c1d9" stroke-width="2"/>
<circle cx="145.9" cy="706.7" r="5.4" fill="none" stroke="#f4a261" stroke-width="2"/>
<circle cx="590.7" cy="255.8" r="16.5" fill="none" stroke="#3d5a80" stroke-width="2"/>
<circle cx="563.6" cy="565.2" r="3.4" fill="none" stroke="#3d5a80" stroke-width="2"/>
<circle cx="484.1" cy="295.1" r="22.8" fill="none" stroke="#e0fbfc" stroke-width="2"/>
<circle cx="535.9" cy="298.0" r="7.7" fill="none" stroke="#3d5a80" stroke-width="2"/>
<circle cx="202.2" cy="695.9" r="14.0" fill="none" stroke="#f4a261" stroke-width="2"/>
<circle cx="159.0" cy="568.5" r="15.4" fill="none" stroke="#3d5a80" stroke-width="2"/>
<circle cx="59.8" cy="551.8" r="21.4" fill="none" stroke="#ee6c4d" stroke-width="2"/>
<circle cx="266.8" cy="669.2" r="3.6" fill="none" stroke="#ee6c4d" stroke-width="2"/>
<circle cx="653.4" cy="464.2" r="15.7" fill="none" stroke="#e0fbfc" stroke-width="2"/>
<circle cx="504.8" cy="758.7" r="3.1" fill="none" stroke="#ee6c4d" stroke-width="2"/>
<circle cx="546.9" cy="149.6" r="24.8" fill="none" stroke="#98c1d9" stroke-width="2"/>
<circle cx="608.7" cy="474.8" r="25.8" fill="none" stroke="#98c1d9" stroke-width="2"/>
<circle cx="349.7" cy="659.3" r="20.7" fill="none" stroke="#98c1d9" stroke-width="2"/>
<circle cx="222.4" cy="657.5" r="16.2" fill="none" stroke="#3d5a80" stroke-width="2"/>
<circle cx="371.9" cy="489.4" r="11.2" fill="none" stroke="#ee6c4d" stroke-width="2"/>
<circle cx="11.1" cy="751.0" r="5.3" fill="none" stroke="#98c1d9" stroke-width="2"/>
<circle cx="401.3" cy="477.2" r="5.5" fill="none" stroke="#ee6c4d" stroke-width="2"/>
<circle cx="743.8" cy="242.9" r="6.2" fill="none" stroke="#98c1d9" stroke-width="2"/>
<circle cx="738.8" cy="619.2" r="5.7" fill="none" stroke="#98c1d9" stroke-width="2"/>
<circle cx="62.6" cy="787.7" r="8.7" fill="none" stroke="#ee6c4d" stroke-width="2"/>
<circle cx="722.7" cy="179.4" r="12.6" fill="none" stroke="#e0fbfc" stroke-width="2"/>
<circle cx="198.4" cy="49.7" r="8.5" fill="none" stroke="#f4a261" stroke-width="2"/>
<circle cx="95.6" cy="437.9" r="4.1" fill="none" stroke="#98c1d9" stroke-width="2"/>
<circle cx="776.0" cy="679.4" r="8.0" fill="none" stroke="#3d5a80" stroke-width="2"/>
<circle cx="567.3" cy="600.2" r="14.6" fill="none" stroke="#3d5a80" stroke-width="2"/>
<circle cx="766.7" cy="595.1" r="13.1" fill="none" stroke="#3d5a80" stroke-width="2"/>
<circle cx="364.5" cy="603.2" r="25.9" fill="none" stroke="#f4a261" stroke-width="2"/>
<circle cx="455.6" cy="771.1" r="11.0" fill="none" stroke="#98c1d9" stroke-width="2"/>
<circle cx="365.3" cy="748.8" r="10.7" fill="none" stroke="#3d5a80" stroke-width="2"/>
<circle cx="724.1" cy="108.0" r="3.8" fill="none" stroke="#ee6c4d" stroke-width="2"/>
<circle cx="684.9" cy="352.9" r="7.7" fill="none" stroke="#e0fbfc" stroke-width="2"/>
<circle cx="442.7" cy="502.5" r="3.4" fill="none" stroke="#ee6c4d" stroke-width="2"/>
<circle cx="41.6" cy="34.4" r="5.7" fill="none" stroke="#f4a261" stroke-width="2"/>
<circle cx="181.3" cy="781.7" r="16.3" fill="none" stroke="#98c1d9" stroke-width="2"/>
<circle cx="745.0" cy="379.2" r="4.6" fill="none" stroke="#3d5a80" stroke-width="2"/>
<circle cx="415.4" cy="198.0" r="17.1" fill="none" stroke="#f4a261" stroke-width="2"/>
<circle cx="588.2" cy="655.2" r="18.8" fill="none" stroke="#98c1d9" stroke-width="2"/>
<circle cx="202.8" cy="201.7" r="10.9" fill="none" stroke="#ee6c4d" stroke-width="2"/>
<circle cx="713.6" cy="125.3" r="9.0" fill="none" stroke="#ee6c4d" stroke-width="2"/>
<circle cx="755.1" cy="97.0" r="10.8" fill="none" stroke="#f4a261" stroke-width="2"/>
<circle cx="422.3" cy="235.4" r="15.7" fill="none" stroke="#e0fbfc" stroke-width="2"/>
<circle cx="430.5" cy="627.0" r="11.7" fill="none" stroke="#98c1d9" stroke-width="2"/>
<circle cx="99.6" cy="402.9" r="26.3" fill="none" stroke="#ee6c4d" stroke-width="2"/>
<circle cx="652.0" cy="378.1" r="17.5" fill="none" stroke="#f4a261" stroke-width="2"/>
<circle cx="116.9" cy="358.9" r="11.0" fill="none" stroke="#3d5a80" stroke-width="2"/>
<circle cx="485.6" cy="15.1" r="10.9" fill="none" stroke="#f4a261" stroke-width="2"/>
<circle cx="543.6" cy="610.9" r="4.9" fill="none" stroke="#3d5a80" stroke-width="2"/>
<circle cx="31.1" cy="777.8" r="3.3" fill="none" stroke="#e0fbfc" stroke-width="2"/>
<circle cx="59.0" cy="375.8" r="5.9" fill="none" stroke="#f4a261" stroke-width="2"/>
<circle cx="206.2" cy="155.4" r="15.3" fill="none" stroke="#f4a261" stroke-width="2"/>
<circle cx="646.1" cy="749.0" r="4.6" fill="none" stroke="#98c1d9" stroke-width="2"/>
<circle cx="69.2" cy="194.1" r="13.6" fill="none" stroke="#3d5a80" stroke-width="2"/>
<circle cx="511.4" cy="92.9" r="10.1" fill="none" stroke="#ee6c4d" stroke-width="2"/>
<circle cx="87.6" cy="147.8" r="26.5" fill="none" stroke="#f4a261" stroke-width="2"/>
<circle cx="209.6" cy="470.4" r="6.2" fill="none" stroke="#f4a261" stroke-width="2"/>
<circle cx="341.4" cy="428.4" r="14.1" fill="none" stroke="#f4a261" stroke-width="2"/>
<circle cx="553.6" cy="540.8" r="3.8" fill="none" stroke="#ee6c4d" stroke-width="2"/>
<circle cx="317.1" cy="22.2" r="17.4" fill="none" stroke="#ee6c4d" stroke-width="2"/>
<circle cx="501.5" cy="782.4" r="10.9" fill="none" stroke="#98c1d9" stroke-width="2"/>
<circle cx="663.7" cy="415.2" r="3.9" fill="none" stroke="#98c1d9" stroke-width="2"/>
<circle cx="60.3" cy="28.8" r="8.5" fill="none" stroke="#f4a261" stroke-width="2"/>
<circle cx="27.3" cy="20.2" r="4.0" fill="none" stroke="#98c1d9" stroke-width="2"/>
<circle cx="599.0" cy="422.8" r="17.2" fill="none" stroke="#3d5a80" stroke-width="2"/>
<circle cx="309.1" cy="237.0" r="5.2" fill="none" stroke="#3d5a80" stroke-width="2"/>
<circle cx="521.0" cy="696.3" r="5.4" fill="none" stroke="#3d5a80" stroke-width="2"/>
<circle cx="211.9" cy="257.4" r="8.7" fill="none" stroke="#ee6c4d" stroke-width="2"/>
<circle cx="402.0" cy="168.0" r="5.6" fill="none" stroke="#98c1d9" stroke-width="2"/>
<circle cx="238.6" cy="429.8" r="3.9" fill="none" stroke="#f4a261" stroke-width="2"/>
<circle cx="695.4" cy="178.9" r="4.8" fill="none" stroke="#ee6c4d" stroke-width="2"/>
<circle cx="287.9" cy="380.6" r="4.1" fill="none" stroke="#ee6c4d" stroke-width="2"/>
<circle cx="512.8" cy="319.1" r="7.9" fill="none" stroke="#ee6c4d" stroke-width="2"/>
<circle cx="718.7" cy="697.5" r="3.2" fill="none" stroke="#e0fbfc" stroke-width="2"/>
<circle cx="745.7" cy="593.0" r="3.5" fill="none" stroke="#98c1d9" stroke-width="2"/>
<circle cx="505.9" cy="432.4" r="7.8" fill="none" stroke="#e0fbfc" stroke-width="2"/>
<circle cx="347.5" cy="475.8" r="5.4" fill="none" stroke="#f4a261" stroke-width="2"/>
<circle cx="346.3" cy="176.0" r="3.9" fill="none" stroke="#e0fbfc" stroke-width="2"/>
<circle cx="7.9" cy="137.6" r="6.9" fill="none" stroke="#e0fbfc" stroke-width="2"/>
<circle cx="527.5" cy="326.9" r="5.1" fill="none" stroke="#e0fbfc" stroke-width="2"/>
<circle cx="686.1" cy="496.7" r="9.5" fill="none" stroke="#e0fbfc" stroke-width="2"/>
<circle cx="374.1" cy="708.9" r="6.5" fill="none" stroke="#f4a261" stroke-width="2"/>
<circle cx="688.2" cy="732.4" r="3.1" fill="none" stroke="#e0fbfc" stroke-width="2"/>
<circle cx="784.0" cy="277.6" r="11.3" fill="none" stroke="#e0fbfc" stroke-width="2"/>
<circle cx="252.1" cy="157.3" r="16.3" fill="none" stroke="#98c1d9" stroke-width="2"/>
<circle cx="18.3" cy="739.0" r="6.7" fill="none" stroke="#e0fbfc" stroke-width="2"/>
<circle cx="92.6" cy="21.2" r="11.8" fill="none" stroke="#e0fbfc" stroke-width="2"/>
<circle cx="658.5" cy="641.4" r="8.3" fill="none" stroke="#e0fbfc" stroke-width="2"/>
<circle cx="795.1" cy="385.8" r="4.5" fill="none" stroke="#e0fbfc" stroke-width="2"/>
<circle cx="139.1" cy="182.6" r="6.5" fill="none" stroke="#98c1d9" stroke-width="2"/>
<circle cx="720.7" cy="513.1" r="19.5" fill="none" stroke="#f4a261" stroke-width="2"/>
<circle cx="262.2" cy="438.4" r="12.4" fill="none" stroke="#e0fbfc" stroke-width="2"/>
<circle cx="477.5" cy="605.2" r="19.1" fill="none" stroke="#ee6c4d" stroke-width="2"/>
<circle cx="91.6" cy="480.2" r="4.0" fill="none" stroke="#ee6c4d" stroke-width="2"/>
<circle cx="562.7" cy="290.8" r="7.4" fill="none" stroke="#98c1d9" stroke-width="2"/>
<circle cx="337.1" cy="135.6" r="10.8" fill="none" stroke="#f4a261" stroke-width="2"/>
<circle cx="677.0" cy="20.0" r="15.4" fill="none" stroke="#f4a261" stroke-width="2"/>
<circle cx="292.2" cy="446.3" r="15.3" fill="none" stroke="#3d5a80" stroke-width="2"/>
<circle cx="394.9" cy="64.5" r="13.9" fill="none" stroke="#3d5a80" stroke-width="2"/>
<circle cx="264.5" cy="363.4" r="3.4" fill="none" stroke="#ee6c4d" stroke-width="2"/>
<circle cx="669.5" cy="758.9" r="8.8" fill="none" stroke="#e0fbfc" stroke-width="2"/>
<circle cx="362.2" cy="703.9" r="3.4" fill="none" stroke="#ee6c4d" stroke-width="2"/>
<circle cx="128.6" cy="150.0" r="11.6" fill="none" stroke="#98c1d9" stroke-width="2"/>
<circle cx="149.8" cy="389.6" r="8.4" fill="none" stroke="#3d5a80" stroke-width="2"/>
<circle cx="436.6" cy="160.3" r="7.4" fill="none" stroke="#ee6c4d" stroke-width="2"/>
<circle cx="196.5" cy="180.7" r="4.0" fill="none" stroke="#ee6c4d" stroke-width="2"/>
<circle cx="314.9" cy="433.1" r="5.4" fill="none" stroke="#f4a261" stroke-width="2"/>
<circle cx="644.0" cy="561.0" r="6.2" fill="none" stroke="#98c1d9" stroke-width="2"/>
<circle cx="36.2" cy="209.6" r="9.6" fill="none" stroke="#f4a261" stroke-width="2"/>
<circle cx="713.5" cy="223.7" r="9.8" fill="none" stroke="#f4a261" stroke-width="2"/>
<circle cx="767.6" cy="39.8" r="6.9" fill="none" stroke="#f4a261" stroke-width="2"/>
<circle cx="113.4" cy="723.7" r="3.7" fill="none" stroke="#3d5a80" stroke-width="2"/>
<circle cx="186.8" cy="517.9" r="4.5" fill="none" stroke="#f4a261" stroke-width="2"/>
<circle cx="234.8" cy="602.2" r="9.9" fill="none" stroke="#e0fbfc" stroke-width="2"/>
<circle cx="664.7" cy="784.2" r="9.2" fill="none" stroke="#98c1d9" stroke-width="2"/>
<circle cx="25.9" cy="118.7" r="16.8" fill="none" stroke="#ee6c4d" stroke-width="2"/>
<circle cx="768.0" cy="260.4" r="5.8" fill="none" stroke="#3d5a80" stroke-width="2"/>
<circle cx="398.8" cy="644.1" r="9.0" fill="none" stroke="#e0fbfc" stroke-width="2"/>
<circle cx="697.7" cy="332.9" r="11.6" fill="none" stroke="#98c1d9" stroke-width="2"/>
<circle cx="189.0" cy="85.6" r="10.0" fill="none" stroke="#e0fbfc" stroke-width="2"/>
<circle cx="10.5" cy="790.2" r="6.7" fill="none" stroke="#3d5a80" stroke-width="2"/>
<circle cx="513.3" cy="182.9" r="16.8" fill="none" stroke="#98c1d9" stroke-width="2"/>
<circle cx="512.2" cy="723.6" r="3.7" fill="none" stroke="#98c1d9" stroke-width="2"/>
<circle cx="411.4" cy="129.7" r="4.3" fill="none" stroke="#e0fbfc" stroke-width="2"/>
<circle cx="769.7" cy="637.5" r="9.3" fill="none" stroke="#ee6c4d" stroke-width="2"/>
<circle cx="308.6" cy="177.2" r="14.5" fill="none" stroke="#f4a261" stroke-width="2"/>
<circle cx="668.4" cy="312.3" r="7.6" fill="none" stroke="#98c1d9" stroke-width="2"/>
<circle cx="207.0" cy="627.4" r="7.0" fill="none" stroke="#e0fbfc" stroke-width="2"/>
<circle cx="56.1" cy="347.1" r="6.0" fill="none" stroke="#98c1d9" stroke-width="2"/>
<circle cx="383.7" cy="105.4" r="16.8" fill="none" stroke="#e0fbfc" stroke-width="2"/>
<circle cx="388.3" cy="186.7" r="3.1" fill="none" stroke="#ee6c4d" stroke-width="2"/>
<circle cx="671.5" cy="146.5" r="5.0" fill="none" stroke="#3d5a80" stroke-width="2"/>
<circle cx="210.2" cy="20.6" r="10.5" fill="none" stroke="#f4a261" stroke-width="2"/>
<circle cx="92.9" cy="584.3" r="16.7" fill="none" stroke="#f4a261" stroke-width="2"/>
<circle cx="35.9" cy="650.8" r="8.8" fill="none" stroke="#f4a261" stroke-width="2"/>
<circle cx="356.6" cy="382.3" r="8.8" fill="none" stroke="#f4a261" stroke-width="2"/>
<circle cx="72.4" cy="647.5" r="4.8" fill="none" stroke="#f4a261" stroke-width="2"/>
<circle cx="110.5" cy="274.1" r="17.5" fill="none" stroke="#3d5a80" stroke-width="2"/>
<circle cx="658.8" cy="738.5" r="9.2" fill="none" stroke="#3d5a80" stroke-width="2"/>
<circle cx="432.6" cy="287.2" r="13.6" fill="none" stroke="#3d5a80" stroke-width="2"/>
<circle cx="158.8" cy="266.0" r="5.5" fill="none" stroke="#98c1d9" stroke-width="2"/>
<circle cx="558.6" cy="108.8" r="14.3" fill="none" stroke="#e0fbfc" stroke-width="2"/>
<circle cx="236.6" cy="465.6" r="4.8" fill="none" stroke="#98c1d9" stroke-width="2"/>
<circle cx="156.6" cy="757.0" r="4.0" fill="none" stroke="#98c1d9" stroke-width="2"/>
<circle cx="639.7" cy="604.7" r="6.1" fill="none" stroke="#ee6c4d" stroke-width="2"/>
<circle cx="497.6" cy="642.2" r="3.8" fill="none" stroke="#3d5a80" stroke-width="2"/>
<circle cx="181.1" cy="604.5" r="3.6" fill="none" stroke="#98c1d9" stroke-width="2"/>
<circle cx="627.2" cy="399.0" r="7.6" fill="none" stroke="#e0fbfc" stroke-width="2"/>
<circle cx="111.0" cy="76.4" r="6.8" fill="none" stroke="#3d5a80" stroke-width="2"/>
<circle cx="633.5" cy="242.5" r="5.2" fill="none" stroke="#ee6c4d" stroke-width="2"/>
<circle cx="688.3" cy="755.6" r="6.2" fill="none" stroke="#98c1d9" stroke-width="2"/>
<circle cx="163.5" cy="514.4" r="7.9" fill="none" stroke="#e0fbfc" stroke-width="2"/>
<circle cx="93.7" cy="225.0" r="6.1" fill="none" stroke="#98c1d9" stroke-width="2"/>
<circle cx="427.2" cy="263.6" r="6.4" fill="none" stroke="#98c1d9" stroke-width="2"/>
<circle cx="141.6" cy="735.2" r="4.4" fill="none" stroke="#3d5a80" stroke-width="2"/>
<circle cx="128.7" cy="741.3" r="3.4" fill="none" stroke="#f4a261" stroke-width="2"/>
<circle cx="185.5" cy="665.3" r="9.0" fill="none" stroke="#ee6c4d" stroke-width="2"/>
<circle cx="442.9" cy="792.4" r="6.1" fill="none" stroke="#3d5a80" stroke-width="2"/>
<circle cx="777.8" cy="318.6" r="9.2" fill="none" stroke="#3d5a80" stroke-width="2"/>
<circle cx="219.6" cy="579.8" r="5.2" fill="none" stroke="#3d5a80" stroke-width="2"/>
<circle cx="472.0" cy="260.2" r="4.9" fill="none" stroke="#f4a261" stroke-width="2"/>
<circle cx="643.4" cy="659.0" r="12.9" fill="none" stroke="#e0fbfc" stroke-width="2"/>
<circle cx="655.3" cy="495.3" r="5.6" fill="none" stroke="#3d5a80" stroke-width="2"/>
<circle cx="781.9" cy="500.9" r="3.5" fill="none" stroke="#98c1d9" stroke-width="2"/>
<circle cx="198.2" cy="600.0" r="10.3" fill="none" stroke="#3d5a80" stroke-width="2"/>
<circle cx="688.7" cy="786.7" r="12.1" fill="none" stroke="#f4a261" stroke-width="2"/>
<circle cx="270.0" cy="731.9" r="5.8" fill="none" stroke="#98c1d9" stroke-width="2"/>
<circle cx="505.7" cy="8.0" r="3.7" fill="none" stroke="#3d5a80" stroke-width="2"/>
<circle cx="449.8" cy="221.7" r="11.8" fill="none" stroke="#f4a261" stroke-width="2"/>
<circle cx="619.6" cy="569.0" r="8.8" fill="none" stroke="#ee6c4d" stroke-width="2"/>
<circle cx="424.2" cy="326.5" r="12.3" fill="none" stroke="#e0fbfc" stroke-width="2"/>
<circle cx="657.9" cy="436.2" r="7.5" fill="none" stroke="#ee6c4d" stroke-width="2"/>
<circle cx="190.2" cy="437.0" r="6.9" fill="none" stroke="#98c1d9" stroke-width="2"/>
<circle cx="347.8" cy="361.9" r="5.2" fill="none" stroke="#3d5a80" stroke-width="2"/>
<circle cx="470.8" cy="757.1" r="3.9" fill="none" stroke="#ee6c4d" stroke-width="2"/>
<circle cx="791.6" cy="660.4" r="7.8" fill="none" stroke="#ee6c4d" stroke-width="2"/>
<circle cx="321.4" cy="459.6" r="12.3" fill="none" stroke="#98c1d9" stroke-width="2"/>
<circle cx="417.6" cy="148.8" r="6.7" fill="none" stroke="#3d5a80" stroke-width="2"/>
<circle cx="239.2" cy="698.3" r="4.9" fill="none" stroke="#3d5a80" stroke-width="2"/>
<circle cx="504.5" cy="55.2" r="4.0" fill="none" stroke="#e0fbfc" stroke-width="2"/>
<circle cx="308.5" cy="214.6" r="8.2" fill="none" stroke="#e0fbfc" stroke-width="2"/>
<circle cx="557.7" cy="432.3" r="3.1" fill="none" stroke="#98c1d9" stroke-width="2"/>
<circle cx="720.5" cy="393.6" r="5.3" fill="none" stroke="#e0fbfc" stroke-width="2"/>
<circle cx="342.8" cy="761.3" r="6.3" fill="none" stroke="#98c1d9" stroke-width="2"/>
<circle cx="768.6" cy="361.7" r="3.5" fill="none" stroke="#3d5a80" stroke-width="2"/>
<circle cx="178.3" cy="553.3" r="6.5" fill="none" stroke="#3d5a80" stroke-width="2"/>
<circle cx="702.4" cy="164.6" r="8.6" fill="none" stroke="#e0fbfc" stroke-width="2"/>
<circle cx="581.8" cy="526.2" r="4.8" fill="none" stroke="#f4a261" stroke-width="2"/>
<circle cx="101.6" cy="614.3" r="5.3" fill="none" stroke="#3d5a80" stroke-width="2"/>
<circle cx="709.5" cy="364.9" r="11.9" fill="none" stroke="#3d5a80" stroke-width="2"/>
<circle cx="345.1" cy="725.7" r="10.9" fill="none" stroke="#e0fbfc" stroke-width="2"/>
<circle cx="631.6" cy="518.6" r="10.6" fill="none" stroke="#ee6c4d" stroke-width="2"/>
<circle cx="9.6" cy="184.4" r="5.8" fill="none" stroke="#f4a261" stroke-width="2"/>
<circle cx="220.1" cy="441.9" r="15.3" fill="none" stroke="#3d5a80" stroke-width="2"/>
<circle cx="136.8" cy="206.8" r="11.7" fill="none" stroke="#ee6c4d" stroke-width="2"/>
<circle cx="4.3" cy="722.6" r="3.0" fill="none" stroke="#f4a261" stroke-width="2"/>
<circle cx="363.6" cy="291.6" r="5.8" fill="none" stroke="#98c1d9" stroke-width="2"/>
<circle cx="618.7" cy="13.3" r="9.1" fill="none" stroke="#e0fbfc" stroke-width="2"/>
<circle cx="427.8" cy="506.1" r="3.5" fill="none" stroke="#3d5a80" stroke-width="2"/>
<circle cx="171.6" cy="108.9" r="12.8" fill="none" stroke="#98c1d9" stroke-width="2"/>
<circle cx="602.6" cy="380.2" r="5.1" fill="none" stroke="#98c1d9" stroke-width="2"/>
<circle cx="776.0" cy="617.0" r="5.2" fill="none" stroke="#3d5a80" stroke-width="2"/>
<circle cx="545.9" cy="68.4" r="9.5" fill="none" stroke="#98c1d9" stroke-width="2"/>
<circle cx="128.5" cy="424.7" r="7.2" fill="none" stroke="#e0fbfc" stroke-width="2"/>
<circle cx="189.6" cy="755.1" r="3.8" fill="none" stroke="#e0fbfc" stroke-width="2"/>
<circle cx="321.7" cy="115.9" r="7.0" fill="none" stroke="#ee6c4d" stroke-width="2"/>
<circle cx="379.1" cy="650.0" r="3.7" fill="none" stroke="#3d5a80" stroke-width="2"/>
<circle cx="368.6" cy="783.7" r="14.3" fill="none" stroke="#98c1d9" stroke-width="2"/>
<circle cx="485.7" cy="213.8" r="5.5" fill="none" stroke="#98c1d9" stroke-width="2"/>
<circle cx="500.8" cy="410.2" r="6.2" fill="none" stroke="#f4a261" stroke-width="2"/>
<circle cx="131.7" cy="390.1" r="4.4" fill="none" stroke="#f4a261" stroke-width="2"/>
<circle cx="758.8" cy="73.6" r="4.7" fill="none" stroke="#ee6c4d" stroke-width="2"/>
<circle cx="495.4" cy="326.7" r="6.3" fill="none" stroke="#3d5a80" stroke-width="2"/>
<circle cx="701.2" cy="689.6" r="7.5" fill="none" stroke="#e0fbfc" stroke-width="2"/>
<circle cx="784.9" cy="762.6" r="12.6" fill="none" stroke="#f4a261" stroke-width="2"/>
<circle cx="347.1" cy="695.3" r="10.9" fill="none" stroke="#ee6c4d" stroke-width="2"/>
<circle cx="145.7" cy="521.6" r="5.7" fill="none" stroke="#e0fbfc" stroke-width="2"/>
<circle cx="388.7" cy="134.2" r="4.6" fill="none" stroke="#e0fbfc" stroke-width="2"/>
<circle cx="325.5" cy="156.9" r="8.3" fill="none" stroke="#3d5a80" stroke-width="2"/>
<circle cx="67.0" cy="231.6" r="17.1" fill="none" stroke="#e0fbfc" stroke-width="2"/>
<circle cx="152.0" cy="164.4" r="13.3" fill="none" stroke="#98c1d9" stroke-width="2"/>
<circle cx="320.1" cy="70.6" r="13.1" fill="none" stroke="#f4a261" stroke-width="2"/>
<circle cx="133.1" cy="774.5" r="11.1" fill="none" stroke="#e0fbfc" stroke-width="2"/>
<circle cx="186.0" cy="22.4" r="7.3" fill="none" stroke="#98c1d9" stroke-width="2"/>
<circle cx="455.1" cy="95.9" r="5.5" fill="none" stroke="#3d5a80" stroke-width="2"/>
<circle cx="394.4" cy="722.9" r="4.3" fill="none" stroke="#f4a261" stroke-width="2"/>
<circle cx="100.1" cy="66.8" r="5.1" fill="none" stroke="#3d5a80" stroke-width="2"/>
<circle cx="168.0" cy="735.5" r="8.6" fill="none" stroke="#98c1d9" stroke-width="2"/>
<circle cx="621.0" cy="643.4" r="10.0" fill="none" stroke="#98c1d9" stroke-width="2"/>
<circle cx="390.1" cy="703.3" r="3.6" fill="none" stroke="#f4a261" stroke-width="2"/>
<circle cx="18.9" cy="656.7" r="4.2" fill="none" stroke="#98c1d9" stroke-width="2"/>
<circle cx="708.7" cy="18.4" r="5.5" fill="none" stroke="#3d5a80" stroke-width="2"/>
<circle cx="196.1" cy="648.6" r="3.6" fill="none" stroke="#3d5a80" stroke-width="2"/>
<circle cx="676.6" cy="725.7" r="4.6" fill="none" stroke="#3d5a80" stroke-width="2"/>
<circle cx="42.5" cy="419.4" r="4.5" fill="none" stroke="#ee6c4d" stroke-width="2"/>
<circle cx="139.0" cy="267.0" r="3.1" fill="none" stroke="#ee6c4d" stroke-width="2"/>
<circle cx="4.3" cy="433.3" r="4.0" fill="none" stroke="#98c1d9" stroke-width="2"/>
<circle cx="722.3" cy="45.2" r="3.2" fill="none" stroke="#ee6c4d" stroke-width="2"/>
<circle cx="101.0" cy="302.5" r="5.5" fill="none" stroke="#e0fbfc" stroke-width="2"/>
<circle cx="21.3" cy="404.6" r="5.8" fill="none" stroke="#f4a261" stroke-width="2"/>
<circle cx="784.1" cy="471.3" r="12.3" fill="none" stroke="#e0fbfc" stroke-width="2"/>
<circle cx="295.6" cy="144.4" r="9.8" fill="none" stroke="#ee6c4d" stroke-width="2"/>
<circle cx="570.6" cy="33.0" r="11.7" fill="none" stroke="#ee6c4d" stroke-width="2"/>
<circle cx="610.3" cy="234.8" r="6.3" fill="none" stroke="#3d5a80" stroke-width="2"/>
<circle cx="277.7" cy="169.2" r="4.6" fill="none" stroke="#98c1d9" stroke-width="2"/>
<circle cx="122.8" cy="170.0" r="4.5" fill="none" stroke="#ee6c4d" stroke-width="2"/>
<circle cx="630.8" cy="219.8" r="7.2" fill="none" stroke="#98c1d9" stroke-width="2"/>
<circle cx="258.9" cy="486.3" r="4.4" fill="none" stroke="#ee6c4d" stroke-width="2"/>
<circle cx="234.1" cy="494.1" r="11.0" fill="none" stroke="#f4a261" stroke-width="2"/>
<circle cx="290.9" cy="696.5" r="6.0" fill="none" stroke="#ee6c4d" stroke-width="2"/>
<circle cx="628.5" cy="774.2" r="3.4" fill="none" stroke="#e0fbfc" stroke-width="2"/>
<circle cx="742.4" cy="573.1" r="3.4" fill="none" stroke="#e0fbfc" stroke-width="2"/>
<circle cx="265.2" cy="606.4" r="4.6" fill="none" stroke="#3d5a80" stroke-width="2"/>
<circle cx="15.7" cy="92.2" r="7.9" fill="none" stroke="#3d5a80" stroke-width="2"/>
<circle cx="15.9" cy="235.5" r="4.8" fill="none" stroke="#f4a261" stroke-width="2"/>
<circle cx="758.4" cy="392.5" r="7.9" fill="none" stroke="#f4a261" stroke-width="2"/>
<circle cx="754.5" cy="789.8" r="5.2" fill="none" stroke="#ee6c4d" stroke-width="2"/>
<circle cx="403.0" cy="608.6" r="6.6" fill="none" stroke="#f4a261" stroke-width="2"/>
<circle cx="731.1" cy="208.1" r="9.5" fill="none" stroke="#ee6c4d" stroke-width="2"/>
<circle cx="307.4" cy="736.4" r="3.2" fill="none" stroke="#ee6c4d" stroke-width="2"/>
<circle cx="266.4" cy="9.5" r="4.5" fill="none" stroke="#ee6c4d" stroke-width="2"/>
<circle cx="495.2" cy="386.5" r="8.9" fill="none" stroke="#ee6c4d" stroke-width="2"/>
<circle cx="230.9" cy="82.1" r="4.8" fill="none" stroke="#98c1d9" stroke-width="2"/>
<circle cx="76.9" cy="317.8" r="3.9" fill="none" stroke="#f4a261" stroke-width="2"/>
<circle cx="285.6" cy="414.0" r="3.9" fill="none" stroke="#98c1d9" stroke-width="2"/>
<circle cx="58.9" cy="515.9" r="4.4" fill="none" stroke="#3d5a80" stroke-width="2"/>
<circle cx="470.9" cy="779.7" r="3.4" fill="none" stroke="#3d5a80" stroke-width="2"/>
<circle cx="297.9" cy="228.8" r="6.7" fill="none" stroke="#f4a261" stroke-width="2"/>
<circle cx="694.3" cy="668.0" r="7.9" fill="none" stroke="#f4a261" stroke-width="2"/>
<circle cx="241.7" cy="632.0" r="8.3" fill="none" stroke="#e0fbfc" stroke-width="2"/>
<circle cx="465.9" cy="527.8" r="6.3" fill="none" stroke="#f4a261" stroke-width="2"/>
<circle cx="739.5" cy="757.4" r="3.6" fill="none" stroke="#ee6c4d" stroke-width="2"/>
<circle cx="450.3" cy="414.2" r="3.6" fill="none" stroke="#3d5a80" stroke-width="2"/>
<circle cx="10.0" cy="343.9" r="8.2" fill="none" stroke="#e0fbfc" stroke-width="2"/>
<circle cx="417.4" cy="29.3" r="9.6" fill="none" stroke="#f4a261" stroke-width="2"/>
<circle cx="25.8" cy="541.0" r="11.8" fill="none" stroke="#3d5a80" stroke-width="2"/>
<circle cx="15.1" cy="387.7" r="7.4" fill="none" stroke="#98c1d9" stroke-width="2"/>
<circle cx="6.0" cy="363.2" r="4.4" fill="none" stroke="#3d5a80" stroke-width="2"/>
<circle cx="12.0" cy="9.4" r="8.1" fill="none" stroke="#e0fbfc" stroke-width="2"/>
<circle cx="453.8" cy="180.2" r="10.9" fill="none" stroke="#ee6c4d" stroke-width="2"/>
<circle cx="454.3" cy="200.0" r="4.4" fill="none" stroke="#f4a261" stroke-width="2"/>
<circle cx="263.2" cy="619.6" r="4.5" fill="none" stroke="#3d5a80" stroke-width="2"/>
<circle cx="24.4" cy="473.1" r="7.4" fill="none" stroke="#3d5a80" stroke-width="2"/>
<circle cx="340.6" cy="4.6" r="4.3" fill="none" stroke="#ee6c4d" stroke-width="2"/>
<circle cx="288.9" cy="5.2" r="3.2" fill="none" stroke="#3d5a80" stroke-width="2"/>
<circle cx="609.0" cy="514.3" r="9.0" fill="none" stroke="#3d5a80" stroke-width="2"/>
<circle cx="337.2" cy="101.9" r="10.2" fill="none" stroke="#f4a261" stroke-width="2"/>
<circle cx="11.2" cy="591.1" r="3.8" fill="none" stroke="#e0fbfc" stroke-width="2"/>
<circle cx="257.2" cy="683.2" r="7.8" fill="none" stroke="#e0fbfc" stroke-width="2"/>
<circle cx="356.2" cy="526.6" r="8.9" fill="none" stroke="#f4a261" stroke-width="2"/>
<circle cx="256.5" cy="749.7" r="7.4" fill="none" stroke="#e0fbfc" stroke-width="2"/>
<circle cx="293.6" cy="395.0" r="5.1" fill="none" stroke="#ee6c4d" stroke-width="2"/>
<circle cx="769.6" cy="8.0" r="6.2" fill="none" stroke="#e0fbfc" stroke-width="2"/>
<circle cx="232.1" cy="257.5" r="4.7" fill="none" stroke="#3d5a80" stroke-width="2"/>
<circle cx="360.5" cy="328.1" r="3.8" fill="none" stroke="#e0fbfc" stroke-width="2"/>
<circle cx="189.4" cy="172.7" r="3.9" fill="none" stroke="#e0fbfc" stroke-width="2"/>
<circle cx="179.6" cy="156.6" r="8.7" fill="none" stroke="#98c1d9" stroke-width="2"/>
<circle cx="354.8" cy="451.0" r="5.4" fill="none" stroke="#98c1d9" stroke-width="2"/>
<circle cx="53.2" cy="162.5" r="3.9" fill="none" stroke="#ee6c4d" stroke-width="2"/>
<circle cx="177.8" cy="137.7" r="6.4" fill="none" stroke="#f4a261" stroke-width="2"/>
<circle cx="773.4" cy="172.5" r="4.7" fill="none" stroke="#e0fbfc" stroke-width="2"/>
<circle cx="20.5" cy="434.8" r="3.9" fill="none" stroke="#ee6c4d" stroke-width="2"/>
<circle cx="583.6" cy="14.9" r="3.1" fill="none" stroke="#3d5a80" stroke-width="2"/>
<circle cx="533.0" cy="700.1" r="3.3" fill="none" stroke="#e0fbfc" stroke-width="2"/>
<circle cx="711.3" cy="549.4" r="4.1" fill="none" stroke="#f4a261" stroke-width="2"/>
<circle cx="443.3" cy="113.5" r="6.9" fill="none" stroke="#98c1d9" stroke-width="2"/>
<circle cx="492.2" cy="166.6" r="5.5" fill="none" stroke="#ee6c4d" stroke-width="2"/>
<circle cx="60.2" cy="496.2" r="4.7" fill="none" stroke="#ee6c4d" stroke-width="2"/>
<circle cx="427.9" cy="6.9" r="5.7" fill="none" stroke="#98c1d9" stroke-width="2"/>
<circle cx="110.8" cy="495.2" r="5.7" fill="none" stroke="#e0fbfc" stroke-width="2"/>
<circle cx="624.7" cy="676.4" r="3.5" fill="none" stroke="#ee6c4d" stroke-width="2"/>
<circle cx="214.8" cy="127.8" r="5.4" fill="none" stroke="#98c1d9" stroke-width="2"/>
<circle cx="75.6" cy="35.6" r="3.4" fill="none" stroke="#3d5a80" stroke-width="2"/>
<circle cx="153.9" cy="137.9" r="5.0" fill="none" stroke="#ee6c4d" stroke-width="2"/>
<circle cx="780.8" cy="80.0" r="9.2" fill="none" stroke="#3d5a80" stroke-width="2"/>
<circle cx="217.9" cy="239.9" r="7.1" fill="none" stroke="#3d5a80" stroke-width="2"/>
<circle cx="199.3" cy="454.4" r="3.8" fill="none" stroke="#3d5a80" stroke-width="2"/>
<circle cx="204.1" cy="76.6" r="4.9" fill="none" stroke="#98c1d9" stroke-width="2"/>
<circle cx="712.2" cy="146.1" r="9.6" fill="none" stroke="#3d5a80" stroke-width="2"/>
<circle cx="568.8" cy="12.8" r="4.2" fill="none" stroke="#f4a261" stroke-width="2"/>
<circle cx="340.9" cy="184.1" r="3.8" fill="none" stroke="#f4a261" stroke-width="2"/>
<circle cx="454.1" cy="252.9" r="6.2" fill="none" stroke="#98c1d9" stroke-width="2"/>
<circle cx="230.4" cy="331.9" r="3.2" fill="none" stroke="#98c1d9" stroke-width="2"/>
<circle cx="268.9" cy="711.6" r="6.9" fill="none" stroke="#ee6c4d" stroke-width="2"/>
<circle cx="325.9" cy="595.8" r="9.0" fill="none" stroke="#3d5a80" stroke-width="2"/>
<circle cx="545.9" cy="439.0" r="7.5" fill="none" stroke="#f4a261" stroke-width="2"/>
<circle cx="44.9" cy="495.5" r="3.4" fill="none" stroke="#e0fbfc" stroke-width="2"/>
<circle cx="387.7" cy="678.2" r="16.6" fill="none" stroke="#98c1d9" stroke-width="2"/>
<circle cx="567.4" cy="349.2" r="5.5" fill="none" stroke="#e0fbfc" stroke-width="2"/>
<circle cx="112.3" cy="697.5" r="7.9" fill="none" stroke="#3d5a80" stroke-width="2"/>
<circle cx="401.2" cy="503.4" r="10.3" fill="none" stroke="#3d5a80" stroke-width="2"/>
</svg>
