<svg xmlns="http://www.w3.org/2000/svg" width="800" height="800" viewBox="0 0 800 800">
<rect width="800" height="800" fill="#000814"/>
<g stroke="#e5e5e5" stroke-width="2.5" stroke-linecap="round">
<line x1="25.0" y1="0.0" x2="25.0" y2="25.0"/>
<line x1="25.0" y1="25.0" x2="50.0" y2="25.0"/>
<line x1="100.0" y1="0.0" x2="100.0" y2="25.0"/>
<line x1="100.0" y1="25.0" x2="125.0" y2="25.0"/>
<line x1="175.0" y1="0.0" x2="175.0" y2="25.0"/>
<line x1="175.0" y1="25.0" x2="200.0" y2="25.0"/>
<line x1="200.0" y1="25.0" x2="225.0" y2="25.0"/>
<line x1="250.0" y1="0.0" x2="250.0" y2="25.0"/>
<line x1="300.0" y1="25.0" x2="325.0" y2="25.0"/>
<line x1="350.0" y1="0.0" x2="350.0" y2="25.0"/>
<line x1="375.0" y1="25.0" x2="400.0" y2="25.0"/>
<line x1="425.0" y1="25.0" x2="450.0" y2="25.0"/>
<line x1="475.0" y1="0.0" x2="475.0" y2="25.0"/>
<line x1="525.0" y1="0.0" x2="525.0" y2="25.0"/>
<line x1="500.0" y1="25.0" x2="525.0" y2="25.0"/>
<line x1="550.0" y1="25.0" x2="575.0" y2="25.0"/>
<line x1="575.0" y1="25.0" x2="600.0" y2="25.0"/>
<line x1="600.0" y1="25.0" x2="625.0" y2="25.0"/>
<line x1="625.0" y1="25.0" x2="650.0" y2="25.0"/>
<line x1="650.0" y1="25.0" x2="675.0" y2="25.0"/>
<line x1="700.0" y1="25.0" x2="725.0" y2="25.0"/>
<line x1="725.0" y1="25.0" x2="750.0" y2="25.0"/>
<line x1="750.0" y1="25.0" x2="775.0" y2="25.0"/>
<line x1="0.0" y1="50.0" x2="25.0" y2="50.0"/>
<line x1="50.0" y1="25.0" x2="50.0" y2="50.0"/>
<line x1="75.0" y1="25.0" x2="75.0" y2="50.0"/>
<line x1="100.0" y1="25.0" x2="100.0" y2="50.0"/>
<line x1="150.0" y1="25.0" x2="150.0" y2="50.0"/>
<line x1="125.0" y1="50.0" x2="150.0" y2="50.0"/>
<line x1="150.0" y1="50.0" x2="175.0" y2="50.0"/>
<line x1="175.0" y1="50.0" x2="200.0" y2="50.0"/>
<line x1="225.0" y1="25.0" x2="225.0" y2="50.0"/>
<line x1="225.0" y1="50.0" x2="250.0" y2="50.0"/>
<line x1="275.0" y1="25.0" x2="275.0" y2="50.0"/>
<line x1="250.0" y1="50.0" x2="275.0" y2="50.0"/>
<line x1="300.0" y1="25.0" x2="300.0" y2="50.0"/>
<line x1="325.0" y1="25.0" x2="325.0" y2="50.0"/>
<line x1="350.0" y1="25.0" x2="350.0" y2="50.0"/>
<line x1="375.0" y1="25.0" x2="375.0" y2="50.0"/>
<line x1="400.0" y1="25.0" x2="400.0" y2="50.0"/>
<line x1="425.0" y1="25.0" x2="425.0" y2="50.0"/>
<line x1="475.0" y1="25.0" x2="475.0" y2="50.0"/>
<line x1="450.0" y1="50.0" x2="475.0" y2="50.0"/>
<line x1="525.0" y1="25.0" x2="525.0" y2="50.0"/>
<line x1="550.0" y1="25.0" x2="550.0" y2="50.0"/>
<line x1="575.0" y1="25.0" x2="575.0" y2="50.0"/>
<line x1="625.0" y1="25.0" x2="625.0" y2="50.0"/>
<line x1="675.0" y1="25.0" x2="675.0" y2="50.0"/>
<line x1="700.0" y1="25.0" x2="700.0" y2="50.0"/>
<line x1="675.0" y1="50.0" x2="700.0" y2="50.0"/>
<line x1="725.0" y1="50.0" x2="750.0" y2="50.0"/>
<line x1="750.0" y1="50.0" x2="775.0" y2="50.0"/>
<line x1="25.0" y1="50.0" x2="25.0" y2="75.0"/>
<line x1="25.0" y1="75.0" x2="50.0" y2="75.0"/>
<line x1="75.0" y1="50.0" x2="75.0" y2="75.0"/>
<line x1="50.0" y1="75.0" x2="75.0" y2="75.0"/>
<line x1="100.0" y1="50.0" x2="100.0" y2="75.0"/>
<line x1="125.0" y1="50.0" x2="125.0" y2="75.0"/>
<line x1="175.0" y1="50.0" x2="175.0" y2="75.0"/>
<line x1="175.0" y1="75.0" x2="200.0" y2="75.0"/>
<line x1="225.0" y1="50.0" x2="225.0" y2="75.0"/>
<line x1="250.0" y1="75.0" x2="275.0" y2="75.0"/>
<line x1="300.0" y1="50.0" x2="300.0" y2="75.0"/>
<line x1="275.0" y1="75.0" x2="300.0" y2="75.0"/>
<line x1="350.0" y1="50.0" x2="350.0" y2="75.0"/>
<line x1="325.0" y1="75.0" x2="350.0" y2="75.0"/>
<line x1="350.0" y1="75.0" x2="375.0" y2="75.0"/>
<line x1="400.0" y1="50.0" x2="400.0" y2="75.0"/>
<line x1="425.0" y1="50.0" x2="425.0" y2="75.0"/>
<line x1="450.0" y1="50.0" x2="450.0" y2="75.0"/>
<line x1="450.0" y1="75.0" x2="475.0" y2="75.0"/>
<line x1="500.0" y1="50.0" x2="500.0" y2="75.0"/>
<line x1="475.0" y1="75.0" x2="500.0" y2="75.0"/>
<line x1="500.0" y1="75.0" x2="525.0" y2="75.0"/>
<line x1="525.0" y1="75.0" x2="550.0" y2="75.0"/>
<line x1="575.0" y1="50.0" x2="575.0" y2="75.0"/>
<line x1="550.0" y1="75.0" x2="575.0" y2="75.0"/>
<line x1="600.0" y1="50.0" x2="600.0" y2="75.0"/>
<line x1="600.0" y1="75.0" x2="625.0" y2="75.0"/>
<line x1="650.0" y1="50.0" x2="650.0" y2="75.0"/>
<line x1="625.0" y1="75.0" x2="650.0" y2="75.0"/>
<line x1="650.0" y1="75.0" x2="675.0" y2="75.0"/>
<line x1="675.0" y1="75.0" x2="700.0" y2="75.0"/>
<line x1="725.0" y1="50.0" x2="725.0" y2="75.0"/>
<line x1="725.0" y1="75.0" x2="750.0" y2="75.0"/>
<line x1="750.0" y1="75.0" x2="775.0" y2="75.0"/>
<line x1="775.0" y1="75.0" x2="800.0" y2="75.0"/>
<line x1="50.0" y1="75.0" x2="50.0" y2="100.0"/>
<line x1="100.0" y1="75.0" x2="100.0" y2="100.0"/>
<line x1="75.0" y1="100.0" x2="100.0" y2="100.0"/>
<line x1="150.0" y1="75.0" x2="150.0" y2="100.0"/>
<line x1="125.0" y1="100.0" x2="150.0" y2="100.0"/>
<line x1="150.0" y1="100.0" x2="175.0" y2="100.0"/>
<line x1="200.0" y1="75.0" x2="200.0" y2="100.0"/>
<line x1="200.0" y1="100.0" x2="225.0" y2="100.0"/>
<line x1="250.0" y1="75.0" x2="250.0" y2="100.0"/>
<line x1="225.0" y1="100.0" x2="250.0" y2="100.0"/>
<line x1="275.0" y1="75.0" x2="275.0" y2="100.0"/>
<line x1="300.0" y1="100.0" x2="325.0" y2="100.0"/>
<line x1="350.0" y1="75.0" x2="350.0" y2="100.0"/>
<line x1="325.0" y1="100.0" x2="350.0" y2="100.0"/>
<line x1="400.0" y1="75.0" x2="400.0" y2="100.0"/>
<line x1="375.0" y1="100.0" x2="400.0" y2="100.0"/>
<line x1="425.0" y1="75.0" x2="425.0" y2="100.0"/>
<line x1="425.0" y1="100.0" x2="450.0" y2="100.0"/>
<line x1="450.0" y1="100.0" x2="475.0" y2="100.0"/>
<line x1="475.0" y1="100.0" x2="500.0" y2="100.0"/>
<line x1="525.0" y1="75.0" x2="525.0" y2="100.0"/>
<line x1="550.0" y1="100.0" x2="575.0" y2="100.0"/>
<line x1="600.0" y1="75.0" x2="600.0" y2="100.0"/>
<line x1="575.0" y1="100.0" x2="600.0" y2="100.0"/>
<line x1="650.0" y1="75.0" x2="650.0" y2="100.0"/>
<line x1="675.0" y1="100.0" x2="700.0" y2="100.0"/>
<line x1="725.0" y1="75.0" x2="725.0" y2="100.0"/>
<line x1="700.0" y1="100.0" x2="725.0" y2="100.0"/>
<line x1="750.0" y1="100.0" x2="775.0" y2="100.0"/>
<line x1="25.0" y1="100.0" x2="25.0" y2="125.0"/>
<line x1="50.0" y1="100.0" x2="50.0" y2="125.0"/>
<line x1="25.0" y1="125.0" x2="50.0" y2="125.0"/>
<line x1="50.0" y1="125.0" x2="75.0" y2="125.0"/>
<line x1="100.0" y1="100.0" x2="100.0" y2="125.0"/>
<line x1="100.0" y1="125.0" x2="125.0" y2="125.0"/>
<line x1="150.0" y1="100.0" x2="150.0" y2="125.0"/>
<line x1="175.0" y1="100.0" x2="175.0" y2="125.0"/>
<line x1="175.0" y1="125.0" x2="200.0" y2="125.0"/>
<line x1="200.0" y1="125.0" x2="225.0" y2="125.0"/>
<line x1="250.0" y1="100.0" x2="250.0" y2="125.0"/>
<line x1="275.0" y1="100.0" x2="275.0" y2="125.0"/>
<line x1="300.0" y1="100.0" x2="300.0" y2="125.0"/>
<line x1="325.0" y1="125.0" x2="350.0" y2="125.0"/>
<line x1="375.0" y1="100.0" x2="375.0" y2="125.0"/>
<line x1="350.0" y1="125.0" x2="375.0" y2="125.0"/>
<line x1="400.0" y1="100.0" x2="400.0" y2="125.0"/>
<line x1="400.0" y1="125.0" x2="425.0" y2="125.0"/>
<line x1="450.0" y1="100.0" x2="450.0" y2="125.0"/>
<line x1="475.0" y1="100.0" x2="475.0" y2="125.0"/>
<line x1="525.0" y1="100.0" x2="525.0" y2="125.0"/>
<line x1="500.0" y1="125.0" x2="525.0" y2="125.0"/>
<line x1="550.0" y1="100.0" x2="550.0" y2="125.0"/>
<line x1="550.0" y1="125.0" x2="575.0" y2="125.0"/>
<line x1="575.0" y1="125.0" x2="600.0" y2="125.0"/>
<line x1="625.0" y1="100.0" x2="625.0" y2="125.0"/>
<line x1="600.0" y1="125.0" x2="625.0" y2="125.0"/>
<line x1="625.0" y1="125.0" x2="650.0" y2="125.0"/>
<line x1="675.0" y1="100.0" x2="675.0" y2="125.0"/>
<line x1="650.0" y1="125.0" x2="675.0" y2="125.0"/>
<line x1="700.0" y1="125.0" x2="725.0" y2="125.0"/>
<line x1="750.0" y1="100.0" x2="750.0" y2="125.0"/>
<line x1="725.0" y1="125.0" x2="750.0" y2="125.0"/>
<line x1="775.0" y1="100.0" x2="775.0" y2="125.0"/>
<line x1="0.0" y1="150.0" x2="25.0" y2="150.0"/>
<line x1="25.0" y1="150.0" x2="50.0" y2="150.0"/>
<line x1="75.0" y1="125.0" x2="75.0" y2="150.0"/>
<line x1="100.0" y1="125.0" x2="100.0" y2="150.0"/>
<line x1="100.0" y1="150.0" x2="125.0" y2="150.0"/>
<line x1="150.0" y1="150.0" x2="175.0" y2="150.0"/>
<line x1="200.0" y1="125.0" x2="200.0" y2="150.0"/>
<line x1="175.0" y1="150.0" x2="200.0" y2="150.0"/>
<line x1="250.0" y1="125.0" x2="250.0" y2="150.0"/>
<line x1="225.0" y1="150.0" x2="250.0" y2="150.0"/>
<line x1="300.0" y1="125.0" x2="300.0" y2="150.0"/>
<line x1="275.0" y1="150.0" x2="300.0" y2="150.0"/>
<line x1="300.0" y1="150.0" x2="325.0" y2="150.0"/>
<line x1="350.0" y1="150.0" x2="375.0" y2="150.0"/>
<line x1="400.0" y1="125.0" x2="400.0" y2="150.0"/>
<line x1="375.0" y1="150.0" x2="400.0" y2="150.0"/>
<line x1="450.0" y1="125.0" x2="450.0" y2="150.0"/>
<line x1="425.0" y1="150.0" x2="450.0" y2="150.0"/>
<line x1="500.0" y1="125.0" x2="500.0" y2="150.0"/>
<line x1="475.0" y1="150.0" x2="500.0" y2="150.0"/>
<line x1="525.0" y1="150.0" x2="550.0" y2="150.0"/>
<line x1="550.0" y1="150.0" x2="575.0" y2="150.0"/>
<line x1="600.0" y1="125.0" x2="600.0" y2="150.0"/>
<line x1="625.0" y1="150.0" x2="650.0" y2="150.0"/>
<line x1="675.0" y1="125.0" x2="675.0" y2="150.0"/>
<line x1="700.0" y1="125.0" x2="700.0" y2="150.0"/>
<line x1="700.0" y1="150.0" x2="725.0" y2="150.0"/>
<line x1="725.0" y1="150.0" x2="750.0" y2="150.0"/>
<line x1="775.0" y1="125.0" x2="775.0" y2="150.0"/>
<line x1="25.0" y1="175.0" x2="50.0" y2="175.0"/>
<line x1="75.0" y1="150.0" x2="75.0" y2="175.0"/>
<line x1="50.0" y1="175.0" x2="75.0" y2="175.0"/>
<line x1="75.0" y1="175.0" x2="100.0" y2="175.0"/>
<line x1="125.0" y1="150.0" x2="125.0" y2="175.0"/>
<line x1="150.0" y1="150.0" x2="150.0" y2="175.0"/>
<line x1="125.0" y1="175.0" x2="150.0" y2="175.0"/>
<line x1="200.0" y1="150.0" x2="200.0" y2="175.0"/>
<line x1="225.0" y1="150.0" x2="225.0" y2="175.0"/>
<line x1="250.0" y1="150.0" x2="250.0" y2="175.0"/>
<line x1="275.0" y1="150.0" x2="275.0" y2="175.0"/>
<line x1="275.0" y1="175.0" x2="300.0" y2="175.0"/>
<line x1="325.0" y1="150.0" x2="325.0" y2="175.0"/>
<line x1="350.0" y1="150.0" x2="350.0" y2="175.0"/>
<line x1="400.0" y1="150.0" x2="400.0" y2="175.0"/>
<line x1="425.0" y1="150.0" x2="425.0" y2="175.0"/>
<line x1="425.0" y1="175.0" x2="450.0" y2="175.0"/>
<line x1="450.0" y1="175.0" x2="475.0" y2="175.0"/>
<line x1="500.0" y1="150.0" x2="500.0" y2="175.0"/>
<line x1="500.0" y1="175.0" x2="525.0" y2="175.0"/>
<line x1="525.0" y1="175.0" x2="550.0" y2="175.0"/>
<line x1="575.0" y1="150.0" x2="575.0" y2="175.0"/>
<line x1="550.0" y1="175.0" x2="575.0" y2="175.0"/>
<line x1="600.0" y1="150.0" x2="600.0" y2="175.0"/>
<line x1="600.0" y1="175.0" x2="625.0" y2="175.0"/>
<line x1="650.0" y1="150.0" x2="650.0" y2="175.0"/>
<line x1="650.0" y1="175.0" x2="675.0" y2="175.0"/>
<line x1="700.0" y1="150.0" x2="700.0" y2="175.0"/>
<line x1="675.0" y1="175.0" x2="700.0" y2="175.0"/>
<line x1="725.0" y1="175.0" x2="750.0" y2="175.0"/>
<line x1="775.0" y1="150.0" x2="775.0" y2="175.0"/>
<line x1="750.0" y1="175.0" x2="775.0" y2="175.0"/>
<line x1="25.0" y1="200.0" x2="50.0" y2="200.0"/>
<line x1="100.0" y1="175.0" x2="100.0" y2="200.0"/>
<line x1="75.0" y1="200.0" x2="100.0" y2="200.0"/>
<line x1="125.0" y1="175.0" x2="125.0" y2="200.0"/>
<line x1="175.0" y1="175.0" x2="175.0" y2="200.0"/>
<line x1="150.0" y1="200.0" x2="175.0" y2="200.0"/>
<line x1="175.0" y1="200.0" x2="200.0" y2="200.0"/>
<line x1="225.0" y1="175.0" x2="225.0" y2="200.0"/>
<line x1="200.0" y1="200.0" x2="225.0" y2="200.0"/>
<line x1="250.0" y1="200.0" x2="275.0" y2="200.0"/>
<line x1="275.0" y1="200.0" x2="300.0" y2="200.0"/>
<line x1="325.0" y1="175.0" x2="325.0" y2="200.0"/>
<line x1="300.0" y1="200.0" x2="325.0" y2="200.0"/>
<line x1="350.0" y1="175.0" x2="350.0" y2="200.0"/>
<line x1="375.0" y1="175.0" x2="375.0" y2="200.0"/>
<line x1="375.0" y1="200.0" x2="400.0" y2="200.0"/>
<line x1="425.0" y1="175.0" x2="425.0" y2="200.0"/>
<line x1="400.0" y1="200.0" x2="425.0" y2="200.0"/>
<line x1="475.0" y1="175.0" x2="475.0" y2="200.0"/>
<line x1="475.0" y1="200.0" x2="500.0" y2="200.0"/>
<line x1="500.0" y1="200.0" x2="525.0" y2="200.0"/>
<line x1="525.0" y1="200.0" x2="550.0" y2="200.0"/>
<line x1="575.0" y1="175.0" x2="575.0" y2="200.0"/>
<line x1="575.0" y1="200.0" x2="600.0" y2="200.0"/>
<line x1="625.0" y1="175.0" x2="625.0" y2="200.0"/>
<line x1="650.0" y1="175.0" x2="650.0" y2="200.0"/>
<line x1="700.0" y1="175.0" x2="700.0" y2="200.0"/>
<line x1="725.0" y1="175.0" x2="725.0" y2="200.0"/>
<line x1="775.0" y1="175.0" x2="775.0" y2="200.0"/>
<line x1="25.0" y1="200.0" x2="25.0" y2="225.0"/>
<line x1="75.0" y1="200.0" x2="75.0" y2="225.0"/>
<line x1="50.0" y1="225.0" x2="75.0" y2="225.0"/>
<line x1="125.0" y1="200.0" x2="125.0" y2="225.0"/>
<line x1="100.0" y1="225.0" x2="125.0" y2="225.0"/>
<line x1="150.0" y1="200.0" x2="150.0" y2="225.0"/>
<line x1="150.0" y1="225.0" x2="175.0" y2="225.0"/>
<line x1="200.0" y1="200.0" x2="200.0" y2="225.0"/>
<line x1="225.0" y1="225.0" x2="250.0" y2="225.0"/>
<line x1="275.0" y1="200.0" x2="275.0" y2="225.0"/>
<line x1="250.0" y1="225.0" x2="275.0" y2="225.0"/>
<line x1="300.0" y1="225.0" x2="325.0" y2="225.0"/>
<line x1="350.0" y1="200.0" x2="350.0" y2="225.0"/>
<line x1="325.0" y1="225.0" x2="350.0" y2="225.0"/>
<line x1="375.0" y1="200.0" x2="375.0" y2="225.0"/>
<line x1="400.0" y1="225.0" x2="425.0" y2="225.0"/>
<line x1="450.0" y1="200.0" x2="450.0" y2="225.0"/>
<line x1="425.0" y1="225.0" x2="450.0" y2="225.0"/>
<line x1="450.0" y1="225.0" x2="475.0" y2="225.0"/>
<line x1="475.0" y1="225.0" x2="500.0" y2="225.0"/>
<line x1="500.0" y1="225.0" x2="525.0" y2="225.0"/>
<line x1="550.0" y1="200.0" x2="550.0" y2="225.0"/>
<line x1="550.0" y1="225.0" x2="575.0" y2="225.0"/>
<line x1="575.0" y1="225.0" x2="600.0" y2="225.0"/>
<line x1="625.0" y1="200.0" x2="625.0" y2="225.0"/>
<line x1="625.0" y1="225.0" x2="650.0" y2="225.0"/>
<line x1="675.0" y1="200.0" x2="675.0" y2="225.0"/>
<line x1="650.0" y1="225.0" x2="675.0" y2="225.0"/>
<line x1="725.0" y1="200.0" x2="725.0" y2="225.0"/>
<line x1="700.0" y1="225.0" x2="725.0" y2="225.0"/>
<line x1="750.0" y1="200.0" x2="750.0" y2="225.0"/>
<line x1="750.0" y1="225.0" x2="775.0" y2="225.0"/>
<line x1="775.0" y1="225.0" x2="800.0" y2="225.0"/>
<line x1="25.0" y1="225.0" x2="25.0" y2="250.0"/>
<line x1="25.0" y1="250.0" x2="50.0" y2="250.0"/>
<line x1="75.0" y1="225.0" x2="75.0" y2="250.0"/>
<line x1="75.0" y1="250.0" x2="100.0" y2="250.0"/>
<line x1="125.0" y1="225.0" x2="125.0" y2="250.0"/>
<line x1="150.0" y1="225.0" x2="150.0" y2="250.0"/>
<line x1="200.0" y1="225.0" x2="200.0" y2="250.0"/>
<line x1="175.0" y1="250.0" x2="200.0" y2="250.0"/>
<line x1="225.0" y1="225.0" x2="225.0" y2="250.0"/>
<line x1="250.0" y1="225.0" x2="250.0" y2="250.0"/>
<line x1="275.0" y1="250.0" x2="300.0" y2="250.0"/>
<line x1="300.0" y1="250.0" x2="325.0" y2="250.0"/>
<line x1="350.0" y1="225.0" x2="350.0" y2="250.0"/>
<line x1="325.0" y1="250.0" x2="350.0" y2="250.0"/>
<line x1="375.0" y1="225.0" x2="375.0" y2="250.0"/>
<line x1="375.0" y1="250.0" x2="400.0" y2="250.0"/>
<line x1="400.0" y1="250.0" x2="425.0" y2="250.0"/>
<line x1="425.0" y1="250.0" x2="450.0" y2="250.0"/>
<line x1="475.0" y1="225.0" x2="475.0" y2="250.0"/>
<line x1="525.0" y1="225.0" x2="525.0" y2="250.0"/>
<line x1="550.0" y1="225.0" x2="550.0" y2="250.0"/>
<line x1="550.0" y1="250.0" x2="575.0" y2="250.0"/>
<line x1="575.0" y1="250.0" x2="600.0" y2="250.0"/>
<line x1="625.0" y1="225.0" x2="625.0" y2="250.0"/>
<line x1="600.0" y1="250.0" x2="625.0" y2="250.0"/>
<line x1="650.0" y1="250.0" x2="675.0" y2="250.0"/>
<line x1="700.0" y1="225.0" x2="700.0" y2="250.0"/>
<line x1="675.0" y1="250.0" x2="700.0" y2="250.0"/>
<line x1="750.0" y1="225.0" x2="750.0" y2="250.0"/>
<line x1="25.0" y1="250.0" x2="25.0" y2="275.0"/>
<line x1="0.0" y1="275.0" x2="25.0" y2="275.0"/>
<line x1="100.0" y1="250.0" x2="100.0" y2="275.0"/>
<line x1="75.0" y1="275.0" x2="100.0" y2="275.0"/>
<line x1="125.0" y1="250.0" x2="125.0" y2="275.0"/>
<line x1="150.0" y1="250.0" x2="150.0" y2="275.0"/>
<line x1="200.0" y1="250.0" x2="200.0" y2="275.0"/>
<line x1="200.0" y1="275.0" x2="225.0" y2="275.0"/>
<line x1="250.0" y1="250.0" x2="250.0" y2="275.0"/>
<line x1="275.0" y1="250.0" x2="275.0" y2="275.0"/>
<line x1="300.0" y1="250.0" x2="300.0" y2="275.0"/>
<line x1="350.0" y1="250.0" x2="350.0" y2="275.0"/>
<line x1="350.0" y1="275.0" x2="375.0" y2="275.0"/>
<line x1="425.0" y1="250.0" x2="425.0" y2="275.0"/>
<line x1="475.0" y1="250.0" x2="475.0" y2="275.0"/>
<line x1="450.0" y1="275.0" x2="475.0" y2="275.0"/>
<line x1="500.0" y1="250.0" x2="500.0" y2="275.0"/>
<line x1="475.0" y1="275.0" x2="500.0" y2="275.0"/>
<line x1="525.0" y1="250.0" x2="525.0" y2="275.0"/>
<line x1="525.0" y1="275.0" x2="550.0" y2="275.0"/>
<line x1="575.0" y1="250.0" x2="575.0" y2="275.0"/>
<line x1="600.0" y1="275.0" x2="625.0" y2="275.0"/>
<line x1="650.0" y1="250.0" x2="650.0" y2="275.0"/>
<line x1="625.0" y1="275.0" x2="650.0" y2="275.0"/>
<line x1="700.0" y1="250.0" x2="700.0" y2="275.0"/>
<line x1="725.0" y1="250.0" x2="725.0" y2="275.0"/>
<line x1="750.0" y1="250.0" x2="750.0" y2="275.0"/>
<line x1="725.0" y1="275.0" x2="750.0" y2="275.0"/>
<line x1="775.0" y1="250.0" x2="775.0" y2="275.0"/>
<line x1="50.0" y1="275.0" x2="50.0" y2="300.0"/>
<line x1="25.0" y1="300.0" x2="50.0" y2="300.0"/>
<line x1="75.0" y1="275.0" x2="75.0" y2="300.0"/>
<line x1="50.0" y1="300.0" x2="75.0" y2="300.0"/>
<line x1="125.0" y1="275.0" x2="125.0" y2="300.0"/>
<line x1="100.0" y1="300.0" x2="125.0" y2="300.0"/>
<line x1="150.0" y1="275.0" x2="150.0" y2="300.0"/>
<line x1="175.0" y1="275.0" x2="175.0" y2="300.0"/>
<line x1="150.0" y1="300.0" x2="175.0" y2="300.0"/>
<line x1="200.0" y1="300.0" x2="225.0" y2="300.0"/>
<line x1="250.0" y1="275.0" x2="250.0" y2="300.0"/>
<line x1="225.0" y1="300.0" x2="250.0" y2="300.0"/>
<line x1="275.0" y1="275.0" x2="275.0" y2="300.0"/>
<line x1="300.0" y1="275.0" x2="300.0" y2="300.0"/>
<line x1="325.0" y1="275.0" x2="325.0" y2="300.0"/>
<line x1="325.0" y1="300.0" x2="350.0" y2="300.0"/>
<line x1="350.0" y1="300.0" x2="375.0" y2="300.0"/>
<line x1="400.0" y1="275.0" x2="400.0" y2="300.0"/>
<line x1="425.0" y1="275.0" x2="425.0" y2="300.0"/>
<line x1="400.0" y1="300.0" x2="425.0" y2="300.0"/>
<line x1="425.0" y1="300.0" x2="450.0" y2="300.0"/>
<line x1="450.0" y1="300.0" x2="475.0" y2="300.0"/>
<line x1="475.0" y1="300.0" x2="500.0" y2="300.0"/>
<line x1="500.0" y1="300.0" x2="525.0" y2="300.0"/>
<line x1="550.0" y1="275.0" x2="550.0" y2="300.0"/>
<line x1="575.0" y1="275.0" x2="575.0" y2="300.0"/>
<line x1="575.0" y1="300.0" x2="600.0" y2="300.0"/>
<line x1="625.0" y1="275.0" x2="625.0" y2="300.0"/>
<line x1="650.0" y1="275.0" x2="650.0" y2="300.0"/>
<line x1="675.0" y1="275.0" x2="675.0" y2="300.0"/>
<line x1="675.0" y1="300.0" x2="700.0" y2="300.0"/>
<line x1="725.0" y1="275.0" x2="725.0" y2="300.0"/>
<line x1="700.0" y1="300.0" x2="725.0" y2="300.0"/>
<line x1="775.0" y1="275.0" x2="775.0" y2="300.0"/>
<line x1="750.0" y1="300.0" x2="775.0" y2="300.0"/>
<line x1="50.0" y1="300.0" x2="50.0" y2="325.0"/>
<line x1="100.0" y1="300.0" x2="100.0" y2="325.0"/>
<line x1="75.0" y1="325.0" x2="100.0" y2="325.0"/>
<line x1="125.0" y1="325.0" x2="150.0" y2="325.0"/>
<line x1="175.0" y1="300.0" x2="175.0" y2="325.0"/>
<line x1="200.0" y1="300.0" x2="200.0" y2="325.0"/>
<line x1="250.0" y1="300.0" x2="250.0" y2="325.0"/>
<line x1="225.0" y1="325.0" x2="250.0" y2="325.0"/>
<line x1="300.0" y1="300.0" x2="300.0" y2="325.0"/>
<line x1="275.0" y1="325.0" x2="300.0" y2="325.0"/>
<line x1="325.0" y1="300.0" x2="325.0" y2="325.0"/>
<line x1="375.0" y1="300.0" x2="375.0" y2="325.0"/>
<line x1="400.0" y1="300.0" x2="400.0" y2="325.0"/>
<line x1="425.0" y1="325.0" x2="450.0" y2="325.0"/>
<line x1="500.0" y1="300.0" x2="500.0" y2="325.0"/>
<line x1="475.0" y1="325.0" x2="500.0" y2="325.0"/>
<line x1="550.0" y1="300.0" x2="550.0" y2="325.0"/>
<line x1="525.0" y1="325.0" x2="550.0" y2="325.0"/>
<line x1="600.0" y1="300.0" x2="600.0" y2="325.0"/>
<line x1="625.0" y1="300.0" x2="625.0" y2="325.0"/>
<line x1="650.0" y1="300.0" x2="650.0" y2="325.0"/>
<line x1="675.0" y1="300.0" x2="675.0" y2="325.0"/>
<line x1="700.0" y1="325.0" x2="725.0" y2="325.0"/>
<line x1="725.0" y1="325.0" x2="750.0" y2="325.0"/>
<line x1="775.0" y1="300.0" x2="775.0" y2="325.0"/>
<line x1="750.0" y1="325.0" x2="775.0" y2="325.0"/>
<line x1="25.0" y1="325.0" x2="25.0" y2="350.0"/>
<line x1="25.0" y1="350.0" x2="50.0" y2="350.0"/>
<line x1="75.0" y1="325.0" x2="75.0" y2="350.0"/>
<line x1="50.0" y1="350.0" x2="75.0" y2="350.0"/>
<line x1="75.0" y1="350.0" x2="100.0" y2="350.0"/>
<line x1="100.0" y1="350.0" x2="125.0" y2="350.0"/>
<line x1="150.0" y1="325.0" x2="150.0" y2="350.0"/>
<line x1="125.0" y1="350.0" x2="150.0" y2="350.0"/>
<line x1="175.0" y1="325.0" x2="175.0" y2="350.0"/>
<line x1="175.0" y1="350.0" x2="200.0" y2="350.0"/>
<line x1="225.0" y1="325.0" x2="225.0" y2="350.0"/>
<line x1="200.0" y1="350.0" x2="225.0" y2="350.0"/>
<line x1="275.0" y1="325.0" x2="275.0" y2="350.0"/>
<line x1="250.0" y1="350.0" x2="275.0" y2="350.0"/>
<line x1="325.0" y1="325.0" x2="325.0" y2="350.0"/>
<line x1="300.0" y1="350.0" x2="325.0" y2="350.0"/>
<line x1="350.0" y1="325.0" x2="350.0" y2="350.0"/>
<line x1="325.0" y1="350.0" x2="350.0" y2="350.0"/>
<line x1="350.0" y1="350.0" x2="375.0" y2="350.0"/>
<line x1="400.0" y1="325.0" x2="400.0" y2="350.0"/>
<line x1="400.0" y1="350.0" x2="425.0" y2="350.0"/>
<line x1="450.0" y1="325.0" x2="450.0" y2="350.0"/>
<line x1="450.0" y1="350.0" x2="475.0" y2="350.0"/>
<line x1="475.0" y1="350.0" x2="500.0" y2="350.0"/>
<line x1="525.0" y1="325.0" x2="525.0" y2="350.0"/>
<line x1="500.0" y1="350.0" x2="525.0" y2="350.0"/>
<line x1="550.0" y1="325.0" x2="550.0" y2="350.0"/>
<line x1="575.0" y1="325.0" x2="575.0" y2="350.0"/>
<line x1="600.0" y1="325.0" x2="600.0" y2="350.0"/>
<line x1="575.0" y1="350.0" x2="600.0" y2="350.0"/>
<line x1="600.0" y1="350.0" x2="625.0" y2="350.0"/>
<line x1="650.0" y1="325.0" x2="650.0" y2="350.0"/>
<line x1="675.0" y1="325.0" x2="675.0" y2="350.0"/>
<line x1="675.0" y1="350.0" x2="700.0" y2="350.0"/>
<line x1="725.0" y1="325.0" x2="725.0" y2="350.0"/>
<line x1="750.0" y1="350.0" x2="775.0" y2="350.0"/>
<line x1="775.0" y1="350.0" x2="800.0" y2="350.0"/>
<line x1="0.0" y1="375.0" x2="25.0" y2="375.0"/>
<line x1="50.0" y1="350.0" x2="50.0" y2="375.0"/>
<line x1="75.0" y1="375.0" x2="100.0" y2="375.0"/>
<line x1="100.0" y1="375.0" x2="125.0" y2="375.0"/>
<line x1="150.0" y1="350.0" x2="150.0" y2="375.0"/>
<line x1="175.0" y1="350.0" x2="175.0" y2="375.0"/>
<line x1="225.0" y1="350.0" x2="225.0" y2="375.0"/>
<line x1="225.0" y1="375.0" x2="250.0" y2="375.0"/>
<line x1="275.0" y1="350.0" x2="275.0" y2="375.0"/>
<line x1="300.0" y1="350.0" x2="300.0" y2="375.0"/>
<line x1="325.0" y1="375.0" x2="350.0" y2="375.0"/>
<line x1="375.0" y1="350.0" x2="375.0" y2="375.0"/>
<line x1="375.0" y1="375.0" x2="400.0" y2="375.0"/>
<line x1="425.0" y1="350.0" x2="425.0" y2="375.0"/>
<line x1="400.0" y1="375.0" x2="425.0" y2="375.0"/>
<line x1="425.0" y1="375.0" x2="450.0" y2="375.0"/>
<line x1="450.0" y1="375.0" x2="475.0" y2="375.0"/>
<line x1="475.0" y1="375.0" x2="500.0" y2="375.0"/>
<line x1="525.0" y1="350.0" x2="525.0" y2="375.0"/>
<line x1="550.0" y1="350.0" x2="550.0" y2="375.0"/>
<line x1="575.0" y1="350.0" x2="575.0" y2="375.0"/>
<line x1="600.0" y1="375.0" x2="625.0" y2="375.0"/>
<line x1="650.0" y1="350.0" x2="650.0" y2="375.0"/>
<line x1="625.0" y1="375.0" x2="650.0" y2="375.0"/>
<line x1="650.0" y1="375.0" x2="675.0" y2="375.0"/>
<line x1="700.0" y1="350.0" x2="700.0" y2="375.0"/>
<line x1="725.0" y1="350.0" x2="725.0" y2="375.0"/>
<line x1="725.0" y1="375.0" x2="750.0" y2="375.0"/>
<line x1="750.0" y1="375.0" x2="775.0" y2="375.0"/>
<line x1="50.0" y1="375.0" x2="50.0" y2="400.0"/>
<line x1="25.0" y1="400.0" x2="50.0" y2="400.0"/>
<line x1="75.0" y1="375.0" x2="75.0" y2="400.0"/>
<line x1="125.0" y1="375.0" x2="125.0" y2="400.0"/>
<line x1="150.0" y1="375.0" x2="150.0" y2="400.0"/>
<line x1="150.0" y1="400.0" x2="175.0" y2="400.0"/>
<line x1="200.0" y1="375.0" x2="200.0" y2="400.0"/>
<line x1="175.0" y1="400.0" x2="200.0" y2="400.0"/>
<line x1="225.0" y1="400.0" x2="250.0" y2="400.0"/>
<line x1="275.0" y1="375.0" x2="275.0" y2="400.0"/>
<line x1="250.0" y1="400.0" x2="275.0" y2="400.0"/>
<line x1="275.0" y1="400.0" x2="300.0" y2="400.0"/>
<line x1="325.0" y1="375.0" x2="325.0" y2="400.0"/>
<line x1="375.0" y1="375.0" x2="375.0" y2="400.0"/>
<line x1="350.0" y1="400.0" x2="375.0" y2="400.0"/>
<line x1="400.0" y1="400.0" x2="425.0" y2="400.0"/>
<line x1="425.0" y1="400.0" x2="450.0" y2="400.0"/>
<line x1="500.0" y1="375.0" x2="500.0" y2="400.0"/>
<line x1="475.0" y1="400.0" x2="500.0" y2="400.0"/>
<line x1="500.0" y1="400.0" x2="525.0" y2="400.0"/>
<line x1="550.0" y1="375.0" x2="550.0" y2="400.0"/>
<line x1="575.0" y1="375.0" x2="575.0" y2="400.0"/>
<line x1="575.0" y1="400.0" x2="600.0" y2="400.0"/>
<line x1="600.0" y1="400.0" x2="625.0" y2="400.0"/>
<line x1="625.0" y1="400.0" x2="650.0" y2="400.0"/>
<line x1="675.0" y1="375.0" x2="675.0" y2="400.0"/>
<line x1="700.0" y1="375.0" x2="700.0" y2="400.0"/>
<line x1="725.0" y1="375.0" x2="725.0" y2="400.0"/>
<line x1="725.0" y1="400.0" x2="750.0" y2="400.0"/>
<line x1="775.0" y1="375.0" x2="775.0" y2="400.0"/>
<line x1="25.0" y1="400.0" x2="25.0" y2="425.0"/>
<line x1="75.0" y1="400.0" x2="75.0" y2="425.0"/>
<line x1="50.0" y1="425.0" x2="75.0" y2="425.0"/>
<line x1="100.0" y1="400.0" x2="100.0" y2="425.0"/>
<line x1="75.0" y1="425.0" x2="100.0" y2="425.0"/>
<line x1="100.0" y1="425.0" x2="125.0" y2="425.0"/>
<line x1="150.0" y1="400.0" x2="150.0" y2="425.0"/>
<line x1="200.0" y1="400.0" x2="200.0" y2="425.0"/>
<line x1="250.0" y1="400.0" x2="250.0" y2="425.0"/>
<line x1="225.0" y1="425.0" x2="250.0" y2="425.0"/>
<line x1="300.0" y1="400.0" x2="300.0" y2="425.0"/>
<line x1="325.0" y1="400.0" x2="325.0" y2="425.0"/>
<line x1="300.0" y1="425.0" x2="325.0" y2="425.0"/>
<line x1="350.0" y1="425.0" x2="375.0" y2="425.0"/>
<line x1="400.0" y1="400.0" x2="400.0" y2="425.0"/>
<line x1="375.0" y1="425.0" x2="400.0" y2="425.0"/>
<line x1="450.0" y1="400.0" x2="450.0" y2="425.0"/>
<line x1="450.0" y1="425.0" x2="475.0" y2="425.0"/>
<line x1="475.0" y1="425.0" x2="500.0" y2="425.0"/>
<line x1="525.0" y1="400.0" x2="525.0" y2="425.0"/>
<line x1="550.0" y1="400.0" x2="550.0" y2="425.0"/>
<line x1="550.0" y1="425.0" x2="575.0" y2="425.0"/>
<line x1="600.0" y1="400.0" x2="600.0" y2="425.0"/>
<line x1="625.0" y1="425.0" x2="650.0" y2="425.0"/>
<line x1="675.0" y1="400.0" x2="675.0" y2="425.0"/>
<line x1="650.0" y1="425.0" x2="675.0" y2="425.0"/>
<line x1="700.0" y1="400.0" x2="700.0" y2="425.0"/>
<line x1="725.0" y1="400.0" x2="725.0" y2="425.0"/>
<line x1="775.0" y1="400.0" x2="775.0" y2="425.0"/>
<line x1="750.0" y1="425.0" x2="775.0" y2="425.0"/>
<line x1="25.0" y1="425.0" x2="25.0" y2="450.0"/>
<line x1="25.0" y1="450.0" x2="50.0" y2="450.0"/>
<line x1="75.0" y1="425.0" x2="75.0" y2="450.0"/>
<line x1="125.0" y1="425.0" x2="125.0" y2="450.0"/>
<line x1="125.0" y1="450.0" x2="150.0" y2="450.0"/>
<line x1="175.0" y1="425.0" x2="175.0" y2="450.0"/>
<line x1="150.0" y1="450.0" x2="175.0" y2="450.0"/>
<line x1="200.0" y1="425.0" x2="200.0" y2="450.0"/>
<line x1="225.0" y1="425.0" x2="225.0" y2="450.0"/>
<line x1="275.0" y1="425.0" x2="275.0" y2="450.0"/>
<line x1="250.0" y1="450.0" x2="275.0" y2="450.0"/>
<line x1="275.0" y1="450.0" x2="300.0" y2="450.0"/>
<line x1="325.0" y1="425.0" x2="325.0" y2="450.0"/>
<line x1="325.0" y1="450.0" x2="350.0" y2="450.0"/>
<line x1="375.0" y1="425.0" x2="375.0" y2="450.0"/>
<line x1="350.0" y1="450.0" x2="375.0" y2="450.0"/>
<line x1="425.0" y1="425.0" x2="425.0" y2="450.0"/>
<line x1="400.0" y1="450.0" x2="425.0" y2="450.0"/>
<line x1="425.0" y1="450.0" x2="450.0" y2="450.0"/>
<line x1="450.0" y1="450.0" x2="475.0" y2="450.0"/>
<line x1="500.0" y1="425.0" x2="500.0" y2="450.0"/>
<line x1="550.0" y1="425.0" x2="550.0" y2="450.0"/>
<line x1="525.0" y1="450.0" x2="550.0" y2="450.0"/>
<line x1="575.0" y1="425.0" x2="575.0" y2="450.0"/>
<line x1="575.0" y1="450.0" x2="600.0" y2="450.0"/>
<line x1="625.0" y1="425.0" x2="625.0" y2="450.0"/>
<line x1="600.0" y1="450.0" x2="625.0" y2="450.0"/>
<line x1="675.0" y1="425.0" x2="675.0" y2="450.0"/>
<line x1="700.0" y1="425.0" x2="700.0" y2="450.0"/>
<line x1="750.0" y1="425.0" x2="750.0" y2="450.0"/>
<line x1="725.0" y1="450.0" x2="750.0" y2="450.0"/>
<line x1="0.0" y1="475.0" x2="25.0" y2="475.0"/>
<line x1="50.0" y1="450.0" x2="50.0" y2="475.0"/>
<line x1="50.0" y1="475.0" x2="75.0" y2="475.0"/>
<line x1="100.0" y1="450.0" x2="100.0" y2="475.0"/>
<line x1="75.0" y1="475.0" x2="100.0" y2="475.0"/>
<line x1="125.0" y1="450.0" x2="125.0" y2="475.0"/>
<line x1="150.0" y1="450.0" x2="150.0" y2="475.0"/>
<line x1="200.0" y1="450.0" x2="200.0" y2="475.0"/>
<line x1="175.0" y1="475.0" x2="200.0" y2="475.0"/>
<line x1="225.0" y1="450.0" x2="225.0" y2="475.0"/>
<line x1="225.0" y1="475.0" x2="250.0" y2="475.0"/>
<line x1="250.0" y1="475.0" x2="275.0" y2="475.0"/>
<line x1="300.0" y1="450.0" x2="300.0" y2="475.0"/>
<line x1="300.0" y1="475.0" x2="325.0" y2="475.0"/>
<line x1="325.0" y1="475.0" x2="350.0" y2="475.0"/>
<line x1="350.0" y1="475.0" x2="375.0" y2="475.0"/>
<line x1="400.0" y1="450.0" x2="400.0" y2="475.0"/>
<line x1="375.0" y1="475.0" x2="400.0" y2="475.0"/>
<line x1="450.0" y1="450.0" x2="450.0" y2="475.0"/>
<line x1="425.0" y1="475.0" x2="450.0" y2="475.0"/>
<line x1="500.0" y1="450.0" x2="500.0" y2="475.0"/>
<line x1="475.0" y1="475.0" x2="500.0" y2="475.0"/>
<line x1="500.0" y1="475.0" x2="525.0" y2="475.0"/>
<line x1="525.0" y1="475.0" x2="550.0" y2="475.0"/>
<line x1="550.0" y1="475.0" x2="575.0" y2="475.0"/>
<line x1="600.0" y1="450.0" x2="600.0" y2="475.0"/>
<line x1="650.0" y1="450.0" x2="650.0" y2="475.0"/>
<line x1="625.0" y1="475.0" x2="650.0" y2="475.0"/>
<line x1="650.0" y1="475.0" x2="675.0" y2="475.0"/>
<line x1="700.0" y1="450.0" x2="700.0" y2="475.0"/>
<line x1="675.0" y1="475.0" x2="700.0" y2="475.0"/>
<line x1="725.0" y1="450.0" x2="725.0" y2="475.0"/>
<line x1="775.0" y1="450.0" x2="775.0" y2="475.0"/>
<line x1="750.0" y1="475.0" x2="775.0" y2="475.0"/>
<line x1="25.0" y1="475.0" x2="25.0" y2="500.0"/>
<line x1="25.0" y1="500.0" x2="50.0" y2="500.0"/>
<line x1="50.0" y1="500.0" x2="75.0" y2="500.0"/>
<line x1="75.0" y1="500.0" x2="100.0" y2="500.0"/>
<line x1="125.0" y1="475.0" x2="125.0" y2="500.0"/>
<line x1="100.0" y1="500.0" x2="125.0" y2="500.0"/>
<line x1="175.0" y1="475.0" x2="175.0" y2="500.0"/>
<line x1="150.0" y1="500.0" x2="175.0" y2="500.0"/>
<line x1="225.0" y1="475.0" x2="225.0" y2="500.0"/>
<line x1="200.0" y1="500.0" x2="225.0" y2="500.0"/>
<line x1="250.0" y1="500.0" x2="275.0" y2="500.0"/>
<line x1="300.0" y1="475.0" x2="300.0" y2="500.0"/>
<line x1="275.0" y1="500.0" x2="300.0" y2="500.0"/>
<line x1="300.0" y1="500.0" x2="325.0" y2="500.0"/>
<line x1="325.0" y1="500.0" x2="350.0" y2="500.0"/>
<line x1="350.0" y1="500.0" x2="375.0" y2="500.0"/>
<line x1="400.0" y1="475.0" x2="400.0" y2="500.0"/>
<line x1="450.0" y1="475.0" x2="450.0" y2="500.0"/>
<line x1="475.0" y1="475.0" x2="475.0" y2="500.0"/>
<line x1="500.0" y1="500.0" x2="525.0" y2="500.0"/>
<line x1="525.0" y1="500.0" x2="550.0" y2="500.0"/>
<line x1="575.0" y1="475.0" x2="575.0" y2="500.0"/>
<line x1="600.0" y1="475.0" x2="600.0" y2="500.0"/>
<line x1="575.0" y1="500.0" x2="600.0" y2="500.0"/>
<line x1="600.0" y1="500.0" x2="625.0" y2="500.0"/>
<line x1="625.0" y1="500.0" x2="650.0" y2="500.0"/>
<line x1="650.0" y1="500.0" x2="675.0" y2="500.0"/>
<line x1="700.0" y1="475.0" x2="700.0" y2="500.0"/>
<line x1="725.0" y1="475.0" x2="725.0" y2="500.0"/>
<line x1="725.0" y1="500.0" x2="750.0" y2="500.0"/>
<line x1="775.0" y1="475.0" x2="775.0" y2="500.0"/>
<line x1="25.0" y1="525.0" x2="50.0" y2="525.0"/>
<line x1="75.0" y1="500.0" x2="75.0" y2="525.0"/>
<line x1="100.0" y1="525.0" x2="125.0" y2="525.0"/>
<line x1="150.0" y1="500.0" x2="150.0" y2="525.0"/>
<line x1="125.0" y1="525.0" x2="150.0" y2="525.0"/>
<line x1="150.0" y1="525.0" x2="175.0" y2="525.0"/>
<line x1="175.0" y1="525.0" x2="200.0" y2="525.0"/>
<line x1="225.0" y1="500.0" x2="225.0" y2="525.0"/>
<line x1="225.0" y1="525.0" x2="250.0" y2="525.0"/>
<line x1="275.0" y1="500.0" x2="275.0" y2="525.0"/>
<line x1="300.0" y1="525.0" x2="325.0" y2="525.0"/>
<line x1="325.0" y1="525.0" x2="350.0" y2="525.0"/>
<line x1="375.0" y1="500.0" x2="375.0" y2="525.0"/>
<line x1="400.0" y1="500.0" x2="400.0" y2="525.0"/>
<line x1="425.0" y1="500.0" x2="425.0" y2="525.0"/>
<line x1="450.0" y1="500.0" x2="450.0" y2="525.0"/>
<line x1="450.0" y1="525.0" x2="475.0" y2="525.0"/>
<line x1="500.0" y1="500.0" x2="500.0" y2="525.0"/>
<line x1="475.0" y1="525.0" x2="500.0" y2="525.0"/>
<line x1="550.0" y1="500.0" x2="550.0" y2="525.0"/>
<line x1="550.0" y1="525.0" x2="575.0" y2="525.0"/>
<line x1="600.0" y1="500.0" x2="600.0" y2="525.0"/>
<line x1="625.0" y1="525.0" x2="650.0" y2="525.0"/>
<line x1="675.0" y1="500.0" x2="675.0" y2="525.0"/>
<line x1="700.0" y1="500.0" x2="700.0" y2="525.0"/>
<line x1="725.0" y1="500.0" x2="725.0" y2="525.0"/>
<line x1="775.0" y1="500.0" x2="775.0" y2="525.0"/>
<line x1="750.0" y1="525.0" x2="775.0" y2="525.0"/>
<line x1="25.0" y1="525.0" x2="25.0" y2="550.0"/>
<line x1="75.0" y1="525.0" x2="75.0" y2="550.0"/>
<line x1="75.0" y1="550.0" x2="100.0" y2="550.0"/>
<line x1="125.0" y1="525.0" x2="125.0" y2="550.0"/>
<line x1="175.0" y1="525.0" x2="175.0" y2="550.0"/>
<line x1="175.0" y1="550.0" x2="200.0" y2="550.0"/>
<line x1="200.0" y1="550.0" x2="225.0" y2="550.0"/>
<line x1="250.0" y1="525.0" x2="250.0" y2="550.0"/>
<line x1="225.0" y1="550.0" x2="250.0" y2="550.0"/>
<line x1="275.0" y1="525.0" x2="275.0" y2="550.0"/>
<line x1="300.0" y1="525.0" x2="300.0" y2="550.0"/>
<line x1="300.0" y1="550.0" x2="325.0" y2="550.0"/>
<line x1="325.0" y1="550.0" x2="350.0" y2="550.0"/>
<line x1="350.0" y1="550.0" x2="375.0" y2="550.0"/>
<line x1="400.0" y1="525.0" x2="400.0" y2="550.0"/>
<line x1="375.0" y1="550.0" x2="400.0" y2="550.0"/>
<line x1="425.0" y1="525.0" x2="425.0" y2="550.0"/>
<line x1="475.0" y1="525.0" x2="475.0" y2="550.0"/>
<line x1="450.0" y1="550.0" x2="475.0" y2="550.0"/>
<line x1="525.0" y1="525.0" x2="525.0" y2="550.0"/>
<line x1="500.0" y1="550.0" x2="525.0" y2="550.0"/>
<line x1="550.0" y1="525.0" x2="550.0" y2="550.0"/>
<line x1="600.0" y1="525.0" x2="600.0" y2="550.0"/>
<line x1="575.0" y1="550.0" x2="600.0" y2="550.0"/>
<line x1="600.0" y1="550.0" x2="625.0" y2="550.0"/>
<line x1="650.0" y1="525.0" x2="650.0" y2="550.0"/>
<line x1="675.0" y1="525.0" x2="675.0" y2="550.0"/>
<line x1="675.0" y1="550.0" x2="700.0" y2="550.0"/>
<line x1="725.0" y1="525.0" x2="725.0" y2="550.0"/>
<line x1="700.0" y1="550.0" x2="725.0" y2="550.0"/>
<line x1="750.0" y1="525.0" x2="750.0" y2="550.0"/>
<line x1="775.0" y1="550.0" x2="800.0" y2="550.0"/>
<line x1="25.0" y1="550.0" x2="25.0" y2="575.0"/>
<line x1="50.0" y1="550.0" x2="50.0" y2="575.0"/>
<line x1="75.0" y1="550.0" x2="75.0" y2="575.0"/>
<line x1="100.0" y1="550.0" x2="100.0" y2="575.0"/>
<line x1="125.0" y1="550.0" x2="125.0" y2="575.0"/>
<line x1="150.0" y1="550.0" x2="150.0" y2="575.0"/>
<line x1="175.0" y1="550.0" x2="175.0" y2="575.0"/>
<line x1="200.0" y1="575.0" x2="225.0" y2="575.0"/>
<line x1="225.0" y1="575.0" x2="250.0" y2="575.0"/>
<line x1="275.0" y1="550.0" x2="275.0" y2="575.0"/>
<line x1="250.0" y1="575.0" x2="275.0" y2="575.0"/>
<line x1="300.0" y1="575.0" x2="325.0" y2="575.0"/>
<line x1="350.0" y1="550.0" x2="350.0" y2="575.0"/>
<line x1="375.0" y1="575.0" x2="400.0" y2="575.0"/>
<line x1="425.0" y1="550.0" x2="425.0" y2="575.0"/>
<line x1="400.0" y1="575.0" x2="425.0" y2="575.0"/>
<line x1="425.0" y1="575.0" x2="450.0" y2="575.0"/>
<line x1="450.0" y1="575.0" x2="475.0" y2="575.0"/>
<line x1="500.0" y1="550.0" x2="500.0" y2="575.0"/>
<line x1="475.0" y1="575.0" x2="500.0" y2="575.0"/>
<line x1="550.0" y1="550.0" x2="550.0" y2="575.0"/>
<line x1="525.0" y1="575.0" x2="550.0" y2="575.0"/>
<line x1="550.0" y1="575.0" x2="575.0" y2="575.0"/>
<line x1="575.0" y1="575.0" x2="600.0" y2="575.0"/>
<line x1="600.0" y1="575.0" x2="625.0" y2="575.0"/>
<line x1="650.0" y1="550.0" x2="650.0" y2="575.0"/>
<line x1="625.0" y1="575.0" x2="650.0" y2="575.0"/>
<line x1="650.0" y1="575.0" x2="675.0" y2="575.0"/>
<line x1="675.0" y1="575.0" x2="700.0" y2="575.0"/>
<line x1="725.0" y1="550.0" x2="725.0" y2="575.0"/>
<line x1="750.0" y1="550.0" x2="750.0" y2="575.0"/>
<line x1="750.0" y1="575.0" x2="775.0" y2="575.0"/>
<line x1="25.0" y1="575.0" x2="25.0" y2="600.0"/>
<line x1="50.0" y1="575.0" x2="50.0" y2="600.0"/>
<line x1="50.0" y1="600.0" x2="75.0" y2="600.0"/>
<line x1="100.0" y1="575.0" x2="100.0" y2="600.0"/>
<line x1="100.0" y1="600.0" x2="125.0" y2="600.0"/>
<line x1="150.0" y1="575.0" x2="150.0" y2="600.0"/>
<line x1="125.0" y1="600.0" x2="150.0" y2="600.0"/>
<line x1="150.0" y1="600.0" x2="175.0" y2="600.0"/>
<line x1="200.0" y1="575.0" x2="200.0" y2="600.0"/>
<line x1="175.0" y1="600.0" x2="200.0" y2="600.0"/>
<line x1="200.0" y1="600.0" x2="225.0" y2="600.0"/>
<line x1="250.0" y1="575.0" x2="250.0" y2="600.0"/>
<line x1="300.0" y1="575.0" x2="300.0" y2="600.0"/>
<line x1="275.0" y1="600.0" x2="300.0" y2="600.0"/>
<line x1="350.0" y1="575.0" x2="350.0" y2="600.0"/>
<line x1="325.0" y1="600.0" x2="350.0" y2="600.0"/>
<line x1="350.0" y1="600.0" x2="375.0" y2="600.0"/>
<line x1="400.0" y1="575.0" x2="400.0" y2="600.0"/>
<line x1="400.0" y1="600.0" x2="425.0" y2="600.0"/>
<line x1="450.0" y1="600.0" x2="475.0" y2="600.0"/>
<line x1="500.0" y1="575.0" x2="500.0" y2="600.0"/>
<line x1="475.0" y1="600.0" x2="500.0" y2="600.0"/>
<line x1="500.0" y1="600.0" x2="525.0" y2="600.0"/>
<line x1="550.0" y1="600.0" x2="575.0" y2="600.0"/>
<line x1="600.0" y1="600.0" x2="625.0" y2="600.0"/>
<line x1="625.0" y1="600.0" x2="650.0" y2="600.0"/>
<line x1="675.0" y1="575.0" x2="675.0" y2="600.0"/>
<line x1="650.0" y1="600.0" x2="675.0" y2="600.0"/>
<line x1="725.0" y1="575.0" x2="725.0" y2="600.0"/>
<line x1="700.0" y1="600.0" x2="725.0" y2="600.0"/>
<line x1="750.0" y1="575.0" x2="750.0" y2="600.0"/>
<line x1="775.0" y1="575.0" x2="775.0" y2="600.0"/>
<line x1="25.0" y1="600.0" x2="25.0" y2="625.0"/>
<line x1="0.0" y1="625.0" x2="25.0" y2="625.0"/>
<line x1="50.0" y1="600.0" x2="50.0" y2="625.0"/>
<line x1="75.0" y1="625.0" x2="100.0" y2="625.0"/>
<line x1="100.0" y1="625.0" x2="125.0" y2="625.0"/>
<line x1="150.0" y1="625.0" x2="175.0" y2="625.0"/>
<line x1="175.0" y1="625.0" x2="200.0" y2="625.0"/>
<line x1="225.0" y1="600.0" x2="225.0" y2="625.0"/>
<line x1="250.0" y1="600.0" x2="250.0" y2="625.0"/>
<line x1="275.0" y1="600.0" x2="275.0" y2="625.0"/>
<line x1="300.0" y1="600.0" x2="300.0" y2="625.0"/>
<line x1="325.0" y1="600.0" x2="325.0" y2="625.0"/>
<line x1="350.0" y1="625.0" x2="375.0" y2="625.0"/>
<line x1="400.0" y1="600.0" x2="400.0" y2="625.0"/>
<line x1="375.0" y1="625.0" x2="400.0" y2="625.0"/>
<line x1="450.0" y1="600.0" x2="450.0" y2="625.0"/>
<line x1="425.0" y1="625.0" x2="450.0" y2="625.0"/>
<line x1="475.0" y1="625.0" x2="500.0" y2="625.0"/>
<line x1="525.0" y1="600.0" x2="525.0" y2="625.0"/>
<line x1="575.0" y1="600.0" x2="575.0" y2="625.0"/>
<line x1="550.0" y1="625.0" x2="575.0" y2="625.0"/>
<line x1="575.0" y1="625.0" x2="600.0" y2="625.0"/>
<line x1="600.0" y1="625.0" x2="625.0" y2="625.0"/>
<line x1="625.0" y1="625.0" x2="650.0" y2="625.0"/>
<line x1="675.0" y1="600.0" x2="675.0" y2="625.0"/>
<line x1="700.0" y1="600.0" x2="700.0" y2="625.0"/>
<line x1="750.0" y1="600.0" x2="750.0" y2="625.0"/>
<line x1="725.0" y1="625.0" x2="750.0" y2="625.0"/>
<line x1="775.0" y1="625.0" x2="800.0" y2="625.0"/>
<line x1="50.0" y1="625.0" x2="50.0" y2="650.0"/>
<line x1="25.0" y1="650.0" x2="50.0" y2="650.0"/>
<line x1="75.0" y1="625.0" x2="75.0" y2="650.0"/>
<line x1="50.0" y1="650.0" x2="75.0" y2="650.0"/>
<line x1="125.0" y1="625.0" x2="125.0" y2="650.0"/>
<line x1="150.0" y1="625.0" x2="150.0" y2="650.0"/>
<line x1="125.0" y1="650.0" x2="150.0" y2="650.0"/>
<line x1="200.0" y1="625.0" x2="200.0" y2="650.0"/>
<line x1="200.0" y1="650.0" x2="225.0" y2="650.0"/>
<line x1="250.0" y1="625.0" x2="250.0" y2="650.0"/>
<line x1="275.0" y1="625.0" x2="275.0" y2="650.0"/>
<line x1="300.0" y1="625.0" x2="300.0" y2="650.0"/>
<line x1="300.0" y1="650.0" x2="325.0" y2="650.0"/>
<line x1="350.0" y1="625.0" x2="350.0" y2="650.0"/>
<line x1="325.0" y1="650.0" x2="350.0" y2="650.0"/>
<line x1="350.0" y1="650.0" x2="375.0" y2="650.0"/>
<line x1="375.0" y1="650.0" x2="400.0" y2="650.0"/>
<line x1="450.0" y1="625.0" x2="450.0" y2="650.0"/>
<line x1="475.0" y1="625.0" x2="475.0" y2="650.0"/>
<line x1="475.0" y1="650.0" x2="500.0" y2="650.0"/>
<line x1="525.0" y1="625.0" x2="525.0" y2="650.0"/>
<line x1="550.0" y1="625.0" x2="550.0" y2="650.0"/>
<line x1="525.0" y1="650.0" x2="550.0" y2="650.0"/>
<line x1="600.0" y1="625.0" x2="600.0" y2="650.0"/>
<line x1="650.0" y1="625.0" x2="650.0" y2="650.0"/>
<line x1="675.0" y1="625.0" x2="675.0" y2="650.0"/>
<line x1="675.0" y1="650.0" x2="700.0" y2="650.0"/>
<line x1="725.0" y1="625.0" x2="725.0" y2="650.0"/>
<line x1="700.0" y1="650.0" x2="725.0" y2="650.0"/>
<line x1="750.0" y1="625.0" x2="750.0" y2="650.0"/>
<line x1="775.0" y1="625.0" x2="775.0" y2="650.0"/>
<line x1="25.0" y1="650.0" x2="25.0" y2="675.0"/>
<line x1="50.0" y1="675.0" x2="75.0" y2="675.0"/>
<line x1="100.0" y1="650.0" x2="100.0" y2="675.0"/>
<line x1="75.0" y1="675.0" x2="100.0" y2="675.0"/>
<line x1="100.0" y1="675.0" x2="125.0" y2="675.0"/>
<line x1="125.0" y1="675.0" x2="150.0" y2="675.0"/>
<line x1="175.0" y1="650.0" x2="175.0" y2="675.0"/>
<line x1="150.0" y1="675.0" x2="175.0" y2="675.0"/>
<line x1="175.0" y1="675.0" x2="200.0" y2="675.0"/>
<line x1="225.0" y1="650.0" x2="225.0" y2="675.0"/>
<line x1="250.0" y1="650.0" x2="250.0" y2="675.0"/>
<line x1="225.0" y1="675.0" x2="250.0" y2="675.0"/>
<line x1="275.0" y1="650.0" x2="275.0" y2="675.0"/>
<line x1="275.0" y1="675.0" x2="300.0" y2="675.0"/>
<line x1="300.0" y1="675.0" x2="325.0" y2="675.0"/>
<line x1="325.0" y1="675.0" x2="350.0" y2="675.0"/>
<line x1="400.0" y1="650.0" x2="400.0" y2="675.0"/>
<line x1="425.0" y1="650.0" x2="425.0" y2="675.0"/>
<line x1="400.0" y1="675.0" x2="425.0" y2="675.0"/>
<line x1="450.0" y1="650.0" x2="450.0" y2="675.0"/>
<line x1="450.0" y1="675.0" x2="475.0" y2="675.0"/>
<line x1="500.0" y1="650.0" x2="500.0" y2="675.0"/>
<line x1="500.0" y1="675.0" x2="525.0" y2="675.0"/>
<line x1="525.0" y1="675.0" x2="550.0" y2="675.0"/>
<line x1="575.0" y1="650.0" x2="575.0" y2="675.0"/>
<line x1="550.0" y1="675.0" x2="575.0" y2="675.0"/>
<line x1="600.0" y1="650.0" x2="600.0" y2="675.0"/>
<line x1="625.0" y1="650.0" x2="625.0" y2="675.0"/>
<line x1="625.0" y1="675.0" x2="650.0" y2="675.0"/>
<line x1="650.0" y1="675.0" x2="675.0" y2="675.0"/>
<line x1="675.0" y1="675.0" x2="700.0" y2="675.0"/>
<line x1="700.0" y1="675.0" x2="725.0" y2="675.0"/>
<line x1="750.0" y1="650.0" x2="750.0" y2="675.0"/>
<line x1="750.0" y1="675.0" x2="775.0" y2="675.0"/>
<line x1="50.0" y1="675.0" x2="50.0" y2="700.0"/>
<line x1="25.0" y1="700.0" x2="50.0" y2="700.0"/>
<line x1="100.0" y1="675.0" x2="100.0" y2="700.0"/>
<line x1="150.0" y1="675.0" x2="150.0" y2="700.0"/>
<line x1="200.0" y1="675.0" x2="200.0" y2="700.0"/>
<line x1="200.0" y1="700.0" x2="225.0" y2="700.0"/>
<line x1="225.0" y1="700.0" x2="250.0" y2="700.0"/>
<line x1="275.0" y1="675.0" x2="275.0" y2="700.0"/>
<line x1="250.0" y1="700.0" x2="275.0" y2="700.0"/>
<line x1="300.0" y1="700.0" x2="325.0" y2="700.0"/>
<line x1="325.0" y1="700.0" x2="350.0" y2="700.0"/>
<line x1="375.0" y1="675.0" x2="375.0" y2="700.0"/>
<line x1="350.0" y1="700.0" x2="375.0" y2="700.0"/>
<line x1="375.0" y1="700.0" x2="400.0" y2="700.0"/>
<line x1="400.0" y1="700.0" x2="425.0" y2="700.0"/>
<line x1="425.0" y1="700.0" x2="450.0" y2="700.0"/>
<line x1="475.0" y1="675.0" x2="475.0" y2="700.0"/>
<line x1="475.0" y1="700.0" x2="500.0" y2="700.0"/>
<line x1="525.0" y1="675.0" x2="525.0" y2="700.0"/>
<line x1="575.0" y1="675.0" x2="575.0" y2="700.0"/>
<line x1="575.0" y1="700.0" x2="600.0" y2="700.0"/>
<line x1="625.0" y1="675.0" x2="625.0" y2="700.0"/>
<line x1="650.0" y1="700.0" x2="675.0" y2="700.0"/>
<line x1="700.0" y1="675.0" x2="700.0" y2="700.0"/>
<line x1="700.0" y1="700.0" x2="725.0" y2="700.0"/>
<line x1="725.0" y1="700.0" x2="750.0" y2="700.0"/>
<line x1="775.0" y1="675.0" x2="775.0" y2="700.0"/>
<line x1="750.0" y1="700.0" x2="775.0" y2="700.0"/>
<line x1="0.0" y1="725.0" x2="25.0" y2="725.0"/>
<line x1="25.0" y1="725.0" x2="50.0" y2="725.0"/>
<line x1="75.0" y1="700.0" x2="75.0" y2="725.0"/>
<line x1="50.0" y1="725.0" x2="75.0" y2="725.0"/>
<line x1="100.0" y1="700.0" x2="100.0" y2="725.0"/>
<line x1="125.0" y1="700.0" x2="125.0" y2="725.0"/>
<line x1="100.0" y1="725.0" x2="125.0" y2="725.0"/>
<line x1="125.0" y1="725.0" x2="150.0" y2="725.0"/>
<line x1="175.0" y1="700.0" x2="175.0" y2="725.0"/>
<line x1="150.0" y1="725.0" x2="175.0" y2="725.0"/>
<line x1="175.0" y1="725.0" x2="200.0" y2="725.0"/>
<line x1="200.0" y1="725.0" x2="225.0" y2="725.0"/>
<line x1="250.0" y1="725.0" x2="275.0" y2="725.0"/>
<line x1="300.0" y1="700.0" x2="300.0" y2="725.0"/>
<line x1="275.0" y1="725.0" x2="300.0" y2="725.0"/>
<line x1="350.0" y1="725.0" x2="375.0" y2="725.0"/>
<line x1="375.0" y1="725.0" x2="400.0" y2="725.0"/>
<line x1="425.0" y1="700.0" x2="425.0" y2="725.0"/>
<line x1="475.0" y1="700.0" x2="475.0" y2="725.0"/>
<line x1="450.0" y1="725.0" x2="475.0" y2="725.0"/>
<line x1="500.0" y1="700.0" x2="500.0" y2="725.0"/>
<line x1="500.0" y1="725.0" x2="525.0" y2="725.0"/>
<line x1="550.0" y1="700.0" x2="550.0" y2="725.0"/>
<line x1="525.0" y1="725.0" x2="550.0" y2="725.0"/>
<line x1="575.0" y1="700.0" x2="575.0" y2="725.0"/>
<line x1="575.0" y1="725.0" x2="600.0" y2="725.0"/>
<line x1="625.0" y1="700.0" x2="625.0" y2="725.0"/>
<line x1="600.0" y1="725.0" x2="625.0" y2="725.0"/>
<line x1="650.0" y1="700.0" x2="650.0" y2="725.0"/>
<line x1="675.0" y1="700.0" x2="675.0" y2="725.0"/>
<line x1="675.0" y1="725.0" x2="700.0" y2="725.0"/>
<line x1="700.0" y1="725.0" x2="725.0" y2="725.0"/>
<line x1="725.0" y1="725.0" x2="750.0" y2="725.0"/>
<line x1="750.0" y1="725.0" x2="775.0" y2="725.0"/>
<line x1="775.0" y1="725.0" x2="800.0" y2="725.0"/>
<line x1="75.0" y1="725.0" x2="75.0" y2="750.0"/>
<line x1="50.0" y1="750.0" x2="75.0" y2="750.0"/>
<line x1="75.0" y1="750.0" x2="100.0" y2="750.0"/>
<line x1="125.0" y1="725.0" x2="125.0" y2="750.0"/>
<line x1="150.0" y1="750.0" x2="175.0" y2="750.0"/>
<line x1="175.0" y1="750.0" x2="200.0" y2="750.0"/>
<line x1="225.0" y1="725.0" x2="225.0" y2="750.0"/>
<line x1="250.0" y1="725.0" x2="250.0" y2="750.0"/>
<line x1="300.0" y1="725.0" x2="300.0" y2="750.0"/>
<line x1="325.0" y1="725.0" x2="325.0" y2="750.0"/>
<line x1="350.0" y1="725.0" x2="350.0" y2="750.0"/>
<line x1="350.0" y1="750.0" x2="375.0" y2="750.0"/>
<line x1="375.0" y1="750.0" x2="400.0" y2="750.0"/>
<line x1="425.0" y1="725.0" x2="425.0" y2="750.0"/>
<line x1="450.0" y1="725.0" x2="450.0" y2="750.0"/>
<line x1="450.0" y1="750.0" x2="475.0" y2="750.0"/>
<line x1="475.0" y1="750.0" x2="500.0" y2="750.0"/>
<line x1="500.0" y1="750.0" x2="525.0" y2="750.0"/>
<line x1="550.0" y1="725.0" x2="550.0" y2="750.0"/>
<line x1="550.0" y1="750.0" x2="575.0" y2="750.0"/>
<line x1="600.0" y1="725.0" x2="600.0" y2="750.0"/>
<line x1="650.0" y1="725.0" x2="650.0" y2="750.0"/>
<line x1="625.0" y1="750.0" x2="650.0" y2="750.0"/>
<line x1="700.0" y1="725.0" x2="700.0" y2="750.0"/>
<line x1="700.0" y1="750.0" x2="725.0" y2="750.0"/>
<line x1="775.0" y1="725.0" x2="775.0" y2="750.0"/>
<line x1="25.0" y1="750.0" x2="25.0" y2="775.0"/>
<line x1="50.0" y1="750.0" x2="50.0" y2="775.0"/>
<line x1="100.0" y1="750.0" x2="100.0" y2="775.0"/>
<line x1="125.0" y1="750.0" x2="125.0" y2="775.0"/>
<line x1="150.0" y1="750.0" x2="150.0" y2="775.0"/>
<line x1="200.0" y1="750.0" x2="200.0" y2="775.0"/>
<line x1="175.0" y1="775.0" x2="200.0" y2="775.0"/>
<line x1="225.0" y1="750.0" x2="225.0" y2="775.0"/>
<line x1="250.0" y1="750.0" x2="250.0" y2="775.0"/>
<line x1="275.0" y1="750.0" x2="275.0" y2="775.0"/>
<line x1="300.0" y1="750.0" x2="300.0" y2="775.0"/>
<line x1="275.0" y1="775.0" x2="300.0" y2="775.0"/>
<line x1="325.0" y1="750.0" x2="325.0" y2="775.0"/>
<line x1="350.0" y1="750.0" x2="350.0" y2="775.0"/>
<line x1="400.0" y1="750.0" x2="400.0" y2="775.0"/>
<line x1="425.0" y1="750.0" x2="425.0" y2="775.0"/>
<line x1="400.0" y1="775.0" x2="425.0" y2="775.0"/>
<line x1="450.0" y1="750.0" x2="450.0" y2="775.0"/>
<line x1="475.0" y1="775.0" x2="500.0" y2="775.0"/>
<line x1="500.0" y1="775.0" x2="525.0" y2="775.0"/>
<line x1="550.0" y1="750.0" x2="550.0" y2="775.0"/>
<line x1="600.0" y1="750.0" x2="600.0" y2="775.0"/>
<line x1="575.0" y1="775.0" x2="600.0" y2="775.0"/>
<line x1="625.0" y1="750.0" x2="625.0" y2="775.0"/>
<line x1="675.0" y1="750.0" x2="675.0" y2="775.0"/>
<line x1="650.0" y1="775.0" x2="675.0" y2="775.0"/>
<line x1="675.0" y1="775.0" x2="700.0" y2="775.0"/>
<line x1="700.0" y1="775.0" x2="725.0" y2="775.0"/>
<line x1="750.0" y1="750.0" x2="750.0" y2="775.0"/>
<line x1="725.0" y1="775.0" x2="750.0" y2="775.0"/>
<line x1="775.0" y1="750.0" x2="775.0" y2="775.0"/>
<line x1="25.0" y1="775.0" x2="25.0" y2="800.0"/>
<line x1="75.0" y1="775.0" x2="75.0" y2="800.0"/>
<line x1="150.0" y1="775.0" x2="150.0" y2="800.0"/>
<line x1="250.0" y1="775.0" x2="250.0" y2="800.0"/>
<line x1="325.0" y1="775.0" x2="325.0" y2="800.0"/>
<line x1="375.0" y1="775.0" x2="375.0" y2="800.0"/>
<line x1="475.0" y1="775.0" x2="475.0" y2="800.0"/>
<line x1="550.0" y1="775.0" x2="550.0" y2="800.0"/>
<line x1="650.0" y1="775.0" x2="650.0" y2="800.0"/>
</g>
</svg>
